<mxfile host="Electron" agent="Mozilla/5.0 (Windows NT 10.0; Win64; x64) AppleWebKit/537.36 (KHTML, like Gecko) draw.io/24.7.8 Chrome/128.0.6613.36 Electron/32.0.1 Safari/537.36" version="24.7.8">
  <diagram id="ZvKDWju9uJ-u1ElrlunE" name="Page-1">
    <mxGraphModel dx="3133" dy="394" grid="1" gridSize="10" guides="1" tooltips="1" connect="1" arrows="1" fold="1" page="1" pageScale="1" pageWidth="827" pageHeight="1169" math="0" shadow="0">
      <root>
        <mxCell id="0" />
        <mxCell id="1" parent="0" />
        <mxCell id="lQoL3OxBZK7-1ywt6j9J-1" value="Root" style="ellipse;whiteSpace=wrap;html=1;" parent="1" vertex="1">
          <mxGeometry x="354" width="120" height="50" as="geometry" />
        </mxCell>
        <mxCell id="lQoL3OxBZK7-1ywt6j9J-2" value="Cars" style="ellipse;whiteSpace=wrap;html=1;" parent="1" vertex="1">
          <mxGeometry x="-2080" y="155" width="120" height="50" as="geometry" />
        </mxCell>
        <mxCell id="lQoL3OxBZK7-1ywt6j9J-3" value="Car" style="ellipse;whiteSpace=wrap;html=1;" parent="1" vertex="1">
          <mxGeometry x="-2150" y="255" width="120" height="50" as="geometry" />
        </mxCell>
        <mxCell id="lQoL3OxBZK7-1ywt6j9J-4" value="" style="ellipse;whiteSpace=wrap;html=1;fillColor=none;" parent="1" vertex="1">
          <mxGeometry x="-2142.5" y="260" width="105" height="40" as="geometry" />
        </mxCell>
        <mxCell id="lQoL3OxBZK7-1ywt6j9J-5" value="Produced" style="ellipse;whiteSpace=wrap;html=1;" parent="1" vertex="1">
          <mxGeometry x="-2020" y="435" width="120" height="50" as="geometry" />
        </mxCell>
        <mxCell id="lQoL3OxBZK7-1ywt6j9J-6" value="Modell" style="ellipse;whiteSpace=wrap;html=1;" parent="1" vertex="1">
          <mxGeometry x="-2150" y="435" width="120" height="50" as="geometry" />
        </mxCell>
        <mxCell id="lQoL3OxBZK7-1ywt6j9J-7" value="Brand" style="ellipse;whiteSpace=wrap;html=1;" parent="1" vertex="1">
          <mxGeometry x="-2280" y="435" width="120" height="50" as="geometry" />
        </mxCell>
        <mxCell id="lQoL3OxBZK7-1ywt6j9J-8" value="Creditcards" style="ellipse;whiteSpace=wrap;html=1;" parent="1" vertex="1">
          <mxGeometry x="-1577.5" y="160" width="120" height="50" as="geometry" />
        </mxCell>
        <mxCell id="lQoL3OxBZK7-1ywt6j9J-9" value="Creditcard" style="ellipse;whiteSpace=wrap;html=1;" parent="1" vertex="1">
          <mxGeometry x="-1585" y="260" width="120" height="50" as="geometry" />
        </mxCell>
        <mxCell id="lQoL3OxBZK7-1ywt6j9J-10" value="" style="ellipse;whiteSpace=wrap;html=1;fillColor=none;" parent="1" vertex="1">
          <mxGeometry x="-1577.5" y="265" width="105" height="40" as="geometry" />
        </mxCell>
        <mxCell id="lQoL3OxBZK7-1ywt6j9J-11" value="Type" style="ellipse;whiteSpace=wrap;html=1;" parent="1" vertex="1">
          <mxGeometry x="-1720" y="450" width="120" height="50" as="geometry" />
        </mxCell>
        <mxCell id="lQoL3OxBZK7-1ywt6j9J-12" value="Expire" style="ellipse;whiteSpace=wrap;html=1;" parent="1" vertex="1">
          <mxGeometry x="-1585" y="440" width="120" height="50" as="geometry" />
        </mxCell>
        <mxCell id="lQoL3OxBZK7-1ywt6j9J-13" value="Bank" style="ellipse;whiteSpace=wrap;html=1;" parent="1" vertex="1">
          <mxGeometry x="-1460" y="450" width="120" height="50" as="geometry" />
        </mxCell>
        <mxCell id="lQoL3OxBZK7-1ywt6j9J-14" value="PlateNo" style="rhombus;whiteSpace=wrap;html=1;fillColor=none;" parent="1" vertex="1">
          <mxGeometry x="-2247" y="245" width="67" height="70" as="geometry" />
        </mxCell>
        <mxCell id="lQoL3OxBZK7-1ywt6j9J-15" value="CID" style="rhombus;whiteSpace=wrap;html=1;fillColor=none;" parent="1" vertex="1">
          <mxGeometry x="-2000" y="245" width="67" height="70" as="geometry" />
        </mxCell>
        <mxCell id="lQoL3OxBZK7-1ywt6j9J-16" value="CardNo" style="rhombus;whiteSpace=wrap;html=1;fillColor=none;" parent="1" vertex="1">
          <mxGeometry x="-1720" y="260" width="67" height="70" as="geometry" />
        </mxCell>
        <mxCell id="lQoL3OxBZK7-1ywt6j9J-17" value="CID" style="rhombus;whiteSpace=wrap;html=1;fillColor=none;" parent="1" vertex="1">
          <mxGeometry x="-1409" y="250" width="67" height="70" as="geometry" />
        </mxCell>
        <mxCell id="lQoL3OxBZK7-1ywt6j9J-18" value="Costumers" style="ellipse;whiteSpace=wrap;html=1;" parent="1" vertex="1">
          <mxGeometry x="-907" y="160" width="120" height="50" as="geometry" />
        </mxCell>
        <mxCell id="lQoL3OxBZK7-1ywt6j9J-19" value="Costumer" style="ellipse;whiteSpace=wrap;html=1;" parent="1" vertex="1">
          <mxGeometry x="-907" y="260" width="120" height="50" as="geometry" />
        </mxCell>
        <mxCell id="lQoL3OxBZK7-1ywt6j9J-20" value="" style="ellipse;whiteSpace=wrap;html=1;fillColor=none;" parent="1" vertex="1">
          <mxGeometry x="-899.5" y="265" width="105" height="40" as="geometry" />
        </mxCell>
        <mxCell id="lQoL3OxBZK7-1ywt6j9J-21" value="CID" style="rhombus;whiteSpace=wrap;html=1;fillColor=none;" parent="1" vertex="1">
          <mxGeometry x="-1260" y="250" width="67" height="70" as="geometry" />
        </mxCell>
        <mxCell id="lQoL3OxBZK7-1ywt6j9J-22" value="email" style="ellipse;whiteSpace=wrap;html=1;" parent="1" vertex="1">
          <mxGeometry x="-1200" y="440" width="120" height="50" as="geometry" />
        </mxCell>
        <mxCell id="lQoL3OxBZK7-1ywt6j9J-23" value="passwd" style="ellipse;whiteSpace=wrap;html=1;" parent="1" vertex="1">
          <mxGeometry x="-1055" y="440" width="120" height="50" as="geometry" />
        </mxCell>
        <mxCell id="lQoL3OxBZK7-1ywt6j9J-24" value="UserName" style="ellipse;whiteSpace=wrap;html=1;" parent="1" vertex="1">
          <mxGeometry x="-907" y="435" width="120" height="50" as="geometry" />
        </mxCell>
        <mxCell id="lQoL3OxBZK7-1ywt6j9J-25" value="FirstName" style="ellipse;whiteSpace=wrap;html=1;" parent="1" vertex="1">
          <mxGeometry x="-1220" y="830" width="120" height="50" as="geometry" />
        </mxCell>
        <mxCell id="lQoL3OxBZK7-1ywt6j9J-27" value="LastName" style="ellipse;whiteSpace=wrap;html=1;" parent="1" vertex="1">
          <mxGeometry x="-1090" y="830" width="120" height="50" as="geometry" />
        </mxCell>
        <mxCell id="lQoL3OxBZK7-1ywt6j9J-28" value="Country" style="ellipse;whiteSpace=wrap;html=1;" parent="1" vertex="1">
          <mxGeometry x="-825" y="830" width="120" height="50" as="geometry" />
        </mxCell>
        <mxCell id="lQoL3OxBZK7-1ywt6j9J-29" value="County" style="ellipse;whiteSpace=wrap;html=1;" parent="1" vertex="1">
          <mxGeometry x="-415" y="830" width="120" height="50" as="geometry" />
        </mxCell>
        <mxCell id="lQoL3OxBZK7-1ywt6j9J-30" value="City" style="ellipse;whiteSpace=wrap;html=1;" parent="1" vertex="1">
          <mxGeometry x="-285" y="830" width="120" height="50" as="geometry" />
        </mxCell>
        <mxCell id="lQoL3OxBZK7-1ywt6j9J-31" value="Zip" style="ellipse;whiteSpace=wrap;html=1;" parent="1" vertex="1">
          <mxGeometry x="-685" y="830" width="120" height="50" as="geometry" />
        </mxCell>
        <mxCell id="lQoL3OxBZK7-1ywt6j9J-32" value="Street" style="ellipse;whiteSpace=wrap;html=1;" parent="1" vertex="1">
          <mxGeometry x="-955" y="830" width="120" height="50" as="geometry" />
        </mxCell>
        <mxCell id="lQoL3OxBZK7-1ywt6j9J-33" value="StreetNo" style="ellipse;whiteSpace=wrap;html=1;" parent="1" vertex="1">
          <mxGeometry x="-545" y="830" width="120" height="50" as="geometry" />
        </mxCell>
        <mxCell id="lQoL3OxBZK7-1ywt6j9J-34" value="Address" style="ellipse;whiteSpace=wrap;html=1;" parent="1" vertex="1">
          <mxGeometry x="-580" y="440" width="120" height="50" as="geometry" />
        </mxCell>
        <mxCell id="lQoL3OxBZK7-1ywt6j9J-35" value="Name" style="ellipse;whiteSpace=wrap;html=1;" parent="1" vertex="1">
          <mxGeometry x="-700" y="440" width="120" height="50" as="geometry" />
        </mxCell>
        <mxCell id="lQoL3OxBZK7-1ywt6j9J-38" value="Request" style="ellipse;whiteSpace=wrap;html=1;" parent="1" vertex="1">
          <mxGeometry x="160" y="265" width="120" height="50" as="geometry" />
        </mxCell>
        <mxCell id="lQoL3OxBZK7-1ywt6j9J-39" value="" style="ellipse;whiteSpace=wrap;html=1;fillColor=none;" parent="1" vertex="1">
          <mxGeometry x="167.5" y="270" width="105" height="40" as="geometry" />
        </mxCell>
        <mxCell id="lQoL3OxBZK7-1ywt6j9J-41" value="ReqID" style="rhombus;whiteSpace=wrap;html=1;fillColor=none;" parent="1" vertex="1">
          <mxGeometry x="330" y="190" width="67" height="70" as="geometry" />
        </mxCell>
        <mxCell id="lQoL3OxBZK7-1ywt6j9J-42" value="shipmode" style="ellipse;whiteSpace=wrap;html=1;" parent="1" vertex="1">
          <mxGeometry x="450" y="445" width="120" height="50" as="geometry" />
        </mxCell>
        <mxCell id="lQoL3OxBZK7-1ywt6j9J-43" value="shipPrice" style="ellipse;whiteSpace=wrap;html=1;" parent="1" vertex="1">
          <mxGeometry x="320" y="445" width="120" height="50" as="geometry" />
        </mxCell>
        <mxCell id="lQoL3OxBZK7-1ywt6j9J-44" value="Price" style="ellipse;whiteSpace=wrap;html=1;" parent="1" vertex="1">
          <mxGeometry x="190" y="445" width="120" height="50" as="geometry" />
        </mxCell>
        <mxCell id="lQoL3OxBZK7-1ywt6j9J-47" value="PayMode" style="ellipse;whiteSpace=wrap;html=1;" parent="1" vertex="1">
          <mxGeometry x="65" y="445" width="120" height="50" as="geometry" />
        </mxCell>
        <mxCell id="lQoL3OxBZK7-1ywt6j9J-48" value="CID" style="rhombus;whiteSpace=wrap;html=1;fillColor=none;" parent="1" vertex="1">
          <mxGeometry x="-110" y="255" width="67" height="70" as="geometry" />
        </mxCell>
        <mxCell id="lQoL3OxBZK7-1ywt6j9J-49" value="PID" style="rhombus;whiteSpace=wrap;html=1;fillColor=none;" parent="1" vertex="1">
          <mxGeometry x="330" y="285" width="67" height="70" as="geometry" />
        </mxCell>
        <mxCell id="lQoL3OxBZK7-1ywt6j9J-50" value="Requests" style="ellipse;whiteSpace=wrap;html=1;" parent="1" vertex="1">
          <mxGeometry x="160" y="155" width="120" height="50" as="geometry" />
        </mxCell>
        <mxCell id="lQoL3OxBZK7-1ywt6j9J-51" value="Products" style="ellipse;whiteSpace=wrap;html=1;" parent="1" vertex="1">
          <mxGeometry x="1090" y="155" width="120" height="50" as="geometry" />
        </mxCell>
        <mxCell id="lQoL3OxBZK7-1ywt6j9J-52" value="Product" style="ellipse;whiteSpace=wrap;html=1;" parent="1" vertex="1">
          <mxGeometry x="1090" y="270" width="120" height="50" as="geometry" />
        </mxCell>
        <mxCell id="lQoL3OxBZK7-1ywt6j9J-53" value="" style="ellipse;whiteSpace=wrap;html=1;fillColor=none;" parent="1" vertex="1">
          <mxGeometry x="1097.5" y="275" width="105" height="40" as="geometry" />
        </mxCell>
        <mxCell id="lQoL3OxBZK7-1ywt6j9J-54" value="PID" style="rhombus;whiteSpace=wrap;html=1;fillColor=none;" parent="1" vertex="1">
          <mxGeometry x="1380" y="260" width="67" height="70" as="geometry" />
        </mxCell>
        <mxCell id="lQoL3OxBZK7-1ywt6j9J-56" value="Price" style="ellipse;whiteSpace=wrap;html=1;" parent="1" vertex="1">
          <mxGeometry x="900" y="445" width="120" height="50" as="geometry" />
        </mxCell>
        <mxCell id="lQoL3OxBZK7-1ywt6j9J-57" value="Descreption" style="ellipse;whiteSpace=wrap;html=1;" parent="1" vertex="1">
          <mxGeometry x="1082.5" y="450" width="120" height="50" as="geometry" />
        </mxCell>
        <mxCell id="lQoL3OxBZK7-1ywt6j9J-58" value="Name" style="ellipse;whiteSpace=wrap;html=1;" parent="1" vertex="1">
          <mxGeometry x="1250" y="450" width="120" height="50" as="geometry" />
        </mxCell>
        <mxCell id="lQoL3OxBZK7-1ywt6j9J-59" value="Rates" style="ellipse;whiteSpace=wrap;html=1;" parent="1" vertex="1">
          <mxGeometry x="630" y="160" width="120" height="50" as="geometry" />
        </mxCell>
        <mxCell id="lQoL3OxBZK7-1ywt6j9J-60" value="Rate" style="ellipse;whiteSpace=wrap;html=1;" parent="1" vertex="1">
          <mxGeometry x="630" y="265" width="120" height="50" as="geometry" />
        </mxCell>
        <mxCell id="lQoL3OxBZK7-1ywt6j9J-61" value="" style="ellipse;whiteSpace=wrap;html=1;fillColor=none;" parent="1" vertex="1">
          <mxGeometry x="637.5" y="270" width="105" height="40" as="geometry" />
        </mxCell>
        <mxCell id="lQoL3OxBZK7-1ywt6j9J-63" value="PID" style="rhombus;whiteSpace=wrap;html=1;fillColor=none;" parent="1" vertex="1">
          <mxGeometry x="820" y="255" width="67" height="70" as="geometry" />
        </mxCell>
        <mxCell id="lQoL3OxBZK7-1ywt6j9J-65" value="Who" style="ellipse;whiteSpace=wrap;html=1;" parent="1" vertex="1">
          <mxGeometry x="590" y="440" width="120" height="50" as="geometry" />
        </mxCell>
        <mxCell id="lQoL3OxBZK7-1ywt6j9J-66" value="Rate" style="ellipse;whiteSpace=wrap;html=1;" parent="1" vertex="1">
          <mxGeometry x="717" y="440" width="120" height="50" as="geometry" />
        </mxCell>
        <mxCell id="lQoL3OxBZK7-1ywt6j9J-67" value="CarTypes" style="ellipse;whiteSpace=wrap;html=1;" parent="1" vertex="1">
          <mxGeometry x="1570" y="165" width="120" height="50" as="geometry" />
        </mxCell>
        <mxCell id="lQoL3OxBZK7-1ywt6j9J-68" value="CTID" style="rhombus;whiteSpace=wrap;html=1;fillColor=none;" parent="1" vertex="1">
          <mxGeometry x="1740" y="260" width="67" height="70" as="geometry" />
        </mxCell>
        <mxCell id="lQoL3OxBZK7-1ywt6j9J-69" value="Produced" style="ellipse;whiteSpace=wrap;html=1;" parent="1" vertex="1">
          <mxGeometry x="1470" y="445" width="120" height="50" as="geometry" />
        </mxCell>
        <mxCell id="lQoL3OxBZK7-1ywt6j9J-70" value="Brand" style="ellipse;whiteSpace=wrap;html=1;" parent="1" vertex="1">
          <mxGeometry x="1601" y="445" width="120" height="50" as="geometry" />
        </mxCell>
        <mxCell id="lQoL3OxBZK7-1ywt6j9J-71" value="PID" style="rhombus;whiteSpace=wrap;html=1;fillColor=none;" parent="1" vertex="1">
          <mxGeometry x="1466.5" y="260" width="67" height="70" as="geometry" />
        </mxCell>
        <mxCell id="lQoL3OxBZK7-1ywt6j9J-72" value="CarType" style="ellipse;whiteSpace=wrap;html=1;" parent="1" vertex="1">
          <mxGeometry x="1570" y="270" width="120" height="50" as="geometry" />
        </mxCell>
        <mxCell id="lQoL3OxBZK7-1ywt6j9J-73" value="" style="ellipse;whiteSpace=wrap;html=1;fillColor=none;" parent="1" vertex="1">
          <mxGeometry x="1577.5" y="275" width="105" height="40" as="geometry" />
        </mxCell>
        <mxCell id="lQoL3OxBZK7-1ywt6j9J-74" value="Pictures" style="ellipse;whiteSpace=wrap;html=1;" parent="1" vertex="1">
          <mxGeometry x="2120.25" y="175" width="120" height="50" as="geometry" />
        </mxCell>
        <mxCell id="lQoL3OxBZK7-1ywt6j9J-75" value="Picture" style="ellipse;whiteSpace=wrap;html=1;" parent="1" vertex="1">
          <mxGeometry x="2120.25" y="280" width="120" height="50" as="geometry" />
        </mxCell>
        <mxCell id="lQoL3OxBZK7-1ywt6j9J-76" value="" style="ellipse;whiteSpace=wrap;html=1;fillColor=none;" parent="1" vertex="1">
          <mxGeometry x="2127.75" y="285" width="105" height="40" as="geometry" />
        </mxCell>
        <mxCell id="lQoL3OxBZK7-1ywt6j9J-77" value="PicID" style="rhombus;whiteSpace=wrap;html=1;fillColor=none;" parent="1" vertex="1">
          <mxGeometry x="2261.25" y="270" width="67" height="70" as="geometry" />
        </mxCell>
        <mxCell id="lQoL3OxBZK7-1ywt6j9J-78" value="PID" style="rhombus;whiteSpace=wrap;html=1;fillColor=none;" parent="1" vertex="1">
          <mxGeometry x="1890" y="270" width="67" height="70" as="geometry" />
        </mxCell>
        <mxCell id="lQoL3OxBZK7-1ywt6j9J-79" value="Title" style="ellipse;whiteSpace=wrap;html=1;" parent="1" vertex="1">
          <mxGeometry x="1984" y="455" width="120" height="50" as="geometry" />
        </mxCell>
        <mxCell id="lQoL3OxBZK7-1ywt6j9J-80" value="FilePath" style="ellipse;whiteSpace=wrap;html=1;" parent="1" vertex="1">
          <mxGeometry x="2114" y="455" width="120" height="50" as="geometry" />
        </mxCell>
        <mxCell id="lQoL3OxBZK7-1ywt6j9J-81" value="Caption" style="ellipse;whiteSpace=wrap;html=1;" parent="1" vertex="1">
          <mxGeometry x="2240.25" y="455" width="120" height="50" as="geometry" />
        </mxCell>
        <mxCell id="lQoL3OxBZK7-1ywt6j9J-82" value="Orders" style="ellipse;whiteSpace=wrap;html=1;" parent="1" vertex="1">
          <mxGeometry x="2550" y="165" width="120" height="50" as="geometry" />
        </mxCell>
        <mxCell id="lQoL3OxBZK7-1ywt6j9J-83" value="Order" style="ellipse;whiteSpace=wrap;html=1;" parent="1" vertex="1">
          <mxGeometry x="2550" y="270" width="120" height="50" as="geometry" />
        </mxCell>
        <mxCell id="lQoL3OxBZK7-1ywt6j9J-84" value="" style="ellipse;whiteSpace=wrap;html=1;fillColor=none;" parent="1" vertex="1">
          <mxGeometry x="2557.5" y="275" width="105" height="40" as="geometry" />
        </mxCell>
        <mxCell id="lQoL3OxBZK7-1ywt6j9J-85" value="OrID" style="rhombus;whiteSpace=wrap;html=1;fillColor=none;" parent="1" vertex="1">
          <mxGeometry x="2710" y="210" width="67" height="70" as="geometry" />
        </mxCell>
        <mxCell id="lQoL3OxBZK7-1ywt6j9J-86" value="PartName" style="ellipse;whiteSpace=wrap;html=1;" parent="1" vertex="1">
          <mxGeometry x="2450" y="450" width="120" height="50" as="geometry" />
        </mxCell>
        <mxCell id="lQoL3OxBZK7-1ywt6j9J-87" value="CarType" style="ellipse;whiteSpace=wrap;html=1;" parent="1" vertex="1">
          <mxGeometry x="2580" y="450" width="120" height="50" as="geometry" />
        </mxCell>
        <mxCell id="lQoL3OxBZK7-1ywt6j9J-88" value="Prince" style="ellipse;whiteSpace=wrap;html=1;" parent="1" vertex="1">
          <mxGeometry x="2720" y="450" width="120" height="50" as="geometry" />
        </mxCell>
        <mxCell id="lQoL3OxBZK7-1ywt6j9J-89" value="SID" style="rhombus;whiteSpace=wrap;html=1;fillColor=none;" parent="1" vertex="1">
          <mxGeometry x="2710" y="315" width="67" height="70" as="geometry" />
        </mxCell>
        <mxCell id="lQoL3OxBZK7-1ywt6j9J-93" value="Suppliers" style="ellipse;whiteSpace=wrap;html=1;" parent="1" vertex="1">
          <mxGeometry x="2990" y="165" width="120" height="50" as="geometry" />
        </mxCell>
        <mxCell id="lQoL3OxBZK7-1ywt6j9J-94" value="Supplier" style="ellipse;whiteSpace=wrap;html=1;" parent="1" vertex="1">
          <mxGeometry x="2990" y="270" width="120" height="50" as="geometry" />
        </mxCell>
        <mxCell id="lQoL3OxBZK7-1ywt6j9J-95" value="" style="ellipse;whiteSpace=wrap;html=1;fillColor=none;" parent="1" vertex="1">
          <mxGeometry x="2997.5" y="275" width="105" height="40" as="geometry" />
        </mxCell>
        <mxCell id="lQoL3OxBZK7-1ywt6j9J-96" value="SID" style="rhombus;whiteSpace=wrap;html=1;fillColor=none;" parent="1" vertex="1">
          <mxGeometry x="2890" y="260" width="67" height="70" as="geometry" />
        </mxCell>
        <mxCell id="lQoL3OxBZK7-1ywt6j9J-97" value="Country" style="ellipse;whiteSpace=wrap;html=1;" parent="1" vertex="1">
          <mxGeometry x="2880" y="690" width="120" height="50" as="geometry" />
        </mxCell>
        <mxCell id="lQoL3OxBZK7-1ywt6j9J-98" value="County" style="ellipse;whiteSpace=wrap;html=1;" parent="1" vertex="1">
          <mxGeometry x="3290" y="690" width="120" height="50" as="geometry" />
        </mxCell>
        <mxCell id="lQoL3OxBZK7-1ywt6j9J-99" value="City" style="ellipse;whiteSpace=wrap;html=1;" parent="1" vertex="1">
          <mxGeometry x="3420" y="690" width="120" height="50" as="geometry" />
        </mxCell>
        <mxCell id="lQoL3OxBZK7-1ywt6j9J-100" value="Zip" style="ellipse;whiteSpace=wrap;html=1;" parent="1" vertex="1">
          <mxGeometry x="3020" y="690" width="120" height="50" as="geometry" />
        </mxCell>
        <mxCell id="lQoL3OxBZK7-1ywt6j9J-101" value="Street" style="ellipse;whiteSpace=wrap;html=1;" parent="1" vertex="1">
          <mxGeometry x="2750" y="690" width="120" height="50" as="geometry" />
        </mxCell>
        <mxCell id="lQoL3OxBZK7-1ywt6j9J-102" value="StreetNo" style="ellipse;whiteSpace=wrap;html=1;" parent="1" vertex="1">
          <mxGeometry x="3160" y="690" width="120" height="50" as="geometry" />
        </mxCell>
        <mxCell id="lQoL3OxBZK7-1ywt6j9J-103" value="Address" style="ellipse;whiteSpace=wrap;html=1;" parent="1" vertex="1">
          <mxGeometry x="2950" y="450" width="120" height="50" as="geometry" />
        </mxCell>
        <mxCell id="lQoL3OxBZK7-1ywt6j9J-104" value="Name" style="ellipse;whiteSpace=wrap;html=1;" parent="1" vertex="1">
          <mxGeometry x="3260" y="450" width="120" height="50" as="geometry" />
        </mxCell>
        <mxCell id="lQoL3OxBZK7-1ywt6j9J-105" value="" style="endArrow=classic;html=1;rounded=0;entryX=1;entryY=0.5;entryDx=0;entryDy=0;exitX=0;exitY=0.5;exitDx=0;exitDy=0;" parent="1" source="lQoL3OxBZK7-1ywt6j9J-3" target="lQoL3OxBZK7-1ywt6j9J-14" edge="1">
          <mxGeometry width="50" height="50" relative="1" as="geometry">
            <mxPoint x="-1840" y="325" as="sourcePoint" />
            <mxPoint x="-1790" y="275" as="targetPoint" />
          </mxGeometry>
        </mxCell>
        <mxCell id="lQoL3OxBZK7-1ywt6j9J-106" value="" style="endArrow=classic;html=1;rounded=0;entryX=0.5;entryY=0;entryDx=0;entryDy=0;exitX=0;exitY=1;exitDx=0;exitDy=0;" parent="1" source="lQoL3OxBZK7-1ywt6j9J-3" target="lQoL3OxBZK7-1ywt6j9J-7" edge="1">
          <mxGeometry width="50" height="50" relative="1" as="geometry">
            <mxPoint x="-1840" y="325" as="sourcePoint" />
            <mxPoint x="-1790" y="275" as="targetPoint" />
          </mxGeometry>
        </mxCell>
        <mxCell id="lQoL3OxBZK7-1ywt6j9J-107" value="" style="endArrow=classic;html=1;rounded=0;entryX=0.5;entryY=0;entryDx=0;entryDy=0;" parent="1" target="lQoL3OxBZK7-1ywt6j9J-6" edge="1">
          <mxGeometry width="50" height="50" relative="1" as="geometry">
            <mxPoint x="-2090" y="305" as="sourcePoint" />
            <mxPoint x="-2230" y="375" as="targetPoint" />
          </mxGeometry>
        </mxCell>
        <mxCell id="lQoL3OxBZK7-1ywt6j9J-108" value="" style="endArrow=classic;html=1;rounded=0;entryX=0.451;entryY=0.033;entryDx=0;entryDy=0;entryPerimeter=0;exitX=1;exitY=1;exitDx=0;exitDy=0;" parent="1" source="lQoL3OxBZK7-1ywt6j9J-3" target="lQoL3OxBZK7-1ywt6j9J-5" edge="1">
          <mxGeometry width="50" height="50" relative="1" as="geometry">
            <mxPoint x="-1930" y="335" as="sourcePoint" />
            <mxPoint x="-1880" y="285" as="targetPoint" />
          </mxGeometry>
        </mxCell>
        <mxCell id="lQoL3OxBZK7-1ywt6j9J-109" value="" style="endArrow=none;dashed=1;html=1;rounded=0;" parent="1" edge="1">
          <mxGeometry width="50" height="50" relative="1" as="geometry">
            <mxPoint x="-1977" y="286" as="sourcePoint" />
            <mxPoint x="-1956.5" y="286" as="targetPoint" />
            <Array as="points" />
          </mxGeometry>
        </mxCell>
        <mxCell id="lQoL3OxBZK7-1ywt6j9J-110" value="" style="endArrow=classic;html=1;rounded=0;entryX=0.5;entryY=0;entryDx=0;entryDy=0;exitX=0.5;exitY=1;exitDx=0;exitDy=0;" parent="1" source="lQoL3OxBZK7-1ywt6j9J-2" target="lQoL3OxBZK7-1ywt6j9J-3" edge="1">
          <mxGeometry width="50" height="50" relative="1" as="geometry">
            <mxPoint x="-2100" y="295" as="sourcePoint" />
            <mxPoint x="-2050" y="245" as="targetPoint" />
          </mxGeometry>
        </mxCell>
        <mxCell id="lQoL3OxBZK7-1ywt6j9J-111" value="" style="endArrow=classic;html=1;rounded=0;entryX=0;entryY=0.5;entryDx=0;entryDy=0;exitX=1;exitY=0.5;exitDx=0;exitDy=0;" parent="1" source="lQoL3OxBZK7-1ywt6j9J-3" target="lQoL3OxBZK7-1ywt6j9J-15" edge="1">
          <mxGeometry width="50" height="50" relative="1" as="geometry">
            <mxPoint x="-2100" y="295" as="sourcePoint" />
            <mxPoint x="-2050" y="245" as="targetPoint" />
          </mxGeometry>
        </mxCell>
        <mxCell id="lQoL3OxBZK7-1ywt6j9J-112" value="" style="endArrow=none;dashed=1;html=1;rounded=0;" parent="1" edge="1">
          <mxGeometry width="50" height="50" relative="1" as="geometry">
            <mxPoint x="-1385.75" y="291" as="sourcePoint" />
            <mxPoint x="-1365.25" y="291" as="targetPoint" />
            <Array as="points" />
          </mxGeometry>
        </mxCell>
        <mxCell id="lQoL3OxBZK7-1ywt6j9J-113" value="" style="endArrow=none;dashed=1;html=1;rounded=0;exitX=1;exitY=0.5;exitDx=0;exitDy=0;" parent="1" source="lQoL3OxBZK7-1ywt6j9J-15" edge="1">
          <mxGeometry width="50" height="50" relative="1" as="geometry">
            <mxPoint x="-1580" y="310" as="sourcePoint" />
            <mxPoint x="-1840" y="280" as="targetPoint" />
          </mxGeometry>
        </mxCell>
        <mxCell id="lQoL3OxBZK7-1ywt6j9J-114" value="" style="endArrow=none;dashed=1;html=1;rounded=0;" parent="1" edge="1">
          <mxGeometry width="50" height="50" relative="1" as="geometry">
            <mxPoint x="-1240" y="620" as="sourcePoint" />
            <mxPoint x="-1840" y="620" as="targetPoint" />
          </mxGeometry>
        </mxCell>
        <mxCell id="lQoL3OxBZK7-1ywt6j9J-115" value="" style="endArrow=none;dashed=1;html=1;rounded=0;entryX=0;entryY=1;entryDx=0;entryDy=0;" parent="1" target="lQoL3OxBZK7-1ywt6j9J-21" edge="1">
          <mxGeometry width="50" height="50" relative="1" as="geometry">
            <mxPoint x="-1243" y="620" as="sourcePoint" />
            <mxPoint x="-1280" y="330" as="targetPoint" />
          </mxGeometry>
        </mxCell>
        <mxCell id="lQoL3OxBZK7-1ywt6j9J-116" value="" style="endArrow=none;dashed=1;html=1;rounded=0;entryX=0;entryY=0.5;entryDx=0;entryDy=0;exitX=1;exitY=0.5;exitDx=0;exitDy=0;" parent="1" source="lQoL3OxBZK7-1ywt6j9J-17" target="lQoL3OxBZK7-1ywt6j9J-21" edge="1">
          <mxGeometry width="50" height="50" relative="1" as="geometry">
            <mxPoint x="-1380" y="390" as="sourcePoint" />
            <mxPoint x="-1330" y="340" as="targetPoint" />
          </mxGeometry>
        </mxCell>
        <mxCell id="lQoL3OxBZK7-1ywt6j9J-117" value="" style="endArrow=classic;html=1;rounded=0;entryX=0.5;entryY=0;entryDx=0;entryDy=0;" parent="1" source="lQoL3OxBZK7-1ywt6j9J-8" target="lQoL3OxBZK7-1ywt6j9J-9" edge="1">
          <mxGeometry width="50" height="50" relative="1" as="geometry">
            <mxPoint x="-1515" y="390" as="sourcePoint" />
            <mxPoint x="-1465" y="340" as="targetPoint" />
          </mxGeometry>
        </mxCell>
        <mxCell id="lQoL3OxBZK7-1ywt6j9J-118" value="" style="endArrow=classic;html=1;rounded=0;entryX=0;entryY=0.5;entryDx=0;entryDy=0;exitX=1;exitY=0.5;exitDx=0;exitDy=0;" parent="1" source="lQoL3OxBZK7-1ywt6j9J-9" target="lQoL3OxBZK7-1ywt6j9J-17" edge="1">
          <mxGeometry width="50" height="50" relative="1" as="geometry">
            <mxPoint x="-1515" y="390" as="sourcePoint" />
            <mxPoint x="-1465" y="340" as="targetPoint" />
          </mxGeometry>
        </mxCell>
        <mxCell id="lQoL3OxBZK7-1ywt6j9J-119" value="" style="endArrow=classic;html=1;rounded=0;entryX=1;entryY=0.5;entryDx=0;entryDy=0;exitX=0;exitY=0.5;exitDx=0;exitDy=0;" parent="1" source="lQoL3OxBZK7-1ywt6j9J-9" edge="1">
          <mxGeometry width="50" height="50" relative="1" as="geometry">
            <mxPoint x="-1515" y="270" as="sourcePoint" />
            <mxPoint x="-1648" y="285" as="targetPoint" />
          </mxGeometry>
        </mxCell>
        <mxCell id="lQoL3OxBZK7-1ywt6j9J-120" value="" style="endArrow=classic;html=1;rounded=0;entryX=0.5;entryY=0;entryDx=0;entryDy=0;exitX=0.5;exitY=1;exitDx=0;exitDy=0;" parent="1" source="lQoL3OxBZK7-1ywt6j9J-18" target="lQoL3OxBZK7-1ywt6j9J-19" edge="1">
          <mxGeometry width="50" height="50" relative="1" as="geometry">
            <mxPoint x="-970" y="270" as="sourcePoint" />
            <mxPoint x="-920" y="220" as="targetPoint" />
          </mxGeometry>
        </mxCell>
        <mxCell id="lQoL3OxBZK7-1ywt6j9J-121" value="" style="endArrow=classic;html=1;rounded=0;entryX=1;entryY=0.5;entryDx=0;entryDy=0;exitX=0;exitY=0.5;exitDx=0;exitDy=0;" parent="1" source="lQoL3OxBZK7-1ywt6j9J-19" target="lQoL3OxBZK7-1ywt6j9J-21" edge="1">
          <mxGeometry width="50" height="50" relative="1" as="geometry">
            <mxPoint x="-970" y="270" as="sourcePoint" />
            <mxPoint x="-920" y="220" as="targetPoint" />
          </mxGeometry>
        </mxCell>
        <mxCell id="lQoL3OxBZK7-1ywt6j9J-122" value="" style="endArrow=classic;html=1;rounded=0;entryX=0.5;entryY=0;entryDx=0;entryDy=0;" parent="1" target="lQoL3OxBZK7-1ywt6j9J-24" edge="1">
          <mxGeometry width="50" height="50" relative="1" as="geometry">
            <mxPoint x="-847" y="310" as="sourcePoint" />
            <mxPoint x="-920" y="220" as="targetPoint" />
          </mxGeometry>
        </mxCell>
        <mxCell id="lQoL3OxBZK7-1ywt6j9J-123" value="" style="endArrow=classic;html=1;rounded=0;entryX=0.5;entryY=0;entryDx=0;entryDy=0;exitX=0.273;exitY=0.929;exitDx=0;exitDy=0;exitPerimeter=0;" parent="1" source="lQoL3OxBZK7-1ywt6j9J-19" target="lQoL3OxBZK7-1ywt6j9J-23" edge="1">
          <mxGeometry width="50" height="50" relative="1" as="geometry">
            <mxPoint x="-930" y="310" as="sourcePoint" />
            <mxPoint x="-880" y="260" as="targetPoint" />
          </mxGeometry>
        </mxCell>
        <mxCell id="lQoL3OxBZK7-1ywt6j9J-124" value="" style="endArrow=classic;html=1;rounded=0;entryX=0.5;entryY=0;entryDx=0;entryDy=0;exitX=0.08;exitY=0.774;exitDx=0;exitDy=0;exitPerimeter=0;" parent="1" source="lQoL3OxBZK7-1ywt6j9J-19" target="lQoL3OxBZK7-1ywt6j9J-22" edge="1">
          <mxGeometry width="50" height="50" relative="1" as="geometry">
            <mxPoint x="-930" y="310" as="sourcePoint" />
            <mxPoint x="-880" y="260" as="targetPoint" />
          </mxGeometry>
        </mxCell>
        <mxCell id="lQoL3OxBZK7-1ywt6j9J-125" value="" style="endArrow=classic;html=1;rounded=0;entryX=0.4;entryY=0.018;entryDx=0;entryDy=0;entryPerimeter=0;exitX=1;exitY=1;exitDx=0;exitDy=0;" parent="1" source="lQoL3OxBZK7-1ywt6j9J-19" target="lQoL3OxBZK7-1ywt6j9J-35" edge="1">
          <mxGeometry width="50" height="50" relative="1" as="geometry">
            <mxPoint x="-930" y="310" as="sourcePoint" />
            <mxPoint x="-880" y="260" as="targetPoint" />
          </mxGeometry>
        </mxCell>
        <mxCell id="lQoL3OxBZK7-1ywt6j9J-126" value="" style="endArrow=classic;html=1;rounded=0;exitX=0.235;exitY=0.925;exitDx=0;exitDy=0;exitPerimeter=0;entryX=0.5;entryY=0;entryDx=0;entryDy=0;" parent="1" source="lQoL3OxBZK7-1ywt6j9J-35" target="lQoL3OxBZK7-1ywt6j9J-25" edge="1">
          <mxGeometry width="50" height="50" relative="1" as="geometry">
            <mxPoint x="-820" y="560" as="sourcePoint" />
            <mxPoint x="-770" y="510" as="targetPoint" />
          </mxGeometry>
        </mxCell>
        <mxCell id="lQoL3OxBZK7-1ywt6j9J-127" value="" style="endArrow=classic;html=1;rounded=0;entryX=0.5;entryY=0;entryDx=0;entryDy=0;exitX=0.549;exitY=1.015;exitDx=0;exitDy=0;exitPerimeter=0;" parent="1" source="lQoL3OxBZK7-1ywt6j9J-35" target="lQoL3OxBZK7-1ywt6j9J-27" edge="1">
          <mxGeometry width="50" height="50" relative="1" as="geometry">
            <mxPoint x="-820" y="560" as="sourcePoint" />
            <mxPoint x="-770" y="510" as="targetPoint" />
          </mxGeometry>
        </mxCell>
        <mxCell id="lQoL3OxBZK7-1ywt6j9J-128" value="" style="endArrow=classic;html=1;rounded=0;entryX=0.5;entryY=0;entryDx=0;entryDy=0;exitX=1;exitY=0.5;exitDx=0;exitDy=0;" parent="1" source="lQoL3OxBZK7-1ywt6j9J-19" target="lQoL3OxBZK7-1ywt6j9J-34" edge="1">
          <mxGeometry width="50" height="50" relative="1" as="geometry">
            <mxPoint x="-920" y="450" as="sourcePoint" />
            <mxPoint x="-870" y="400" as="targetPoint" />
          </mxGeometry>
        </mxCell>
        <mxCell id="lQoL3OxBZK7-1ywt6j9J-129" value="" style="endArrow=classic;html=1;rounded=0;entryX=0.5;entryY=0;entryDx=0;entryDy=0;exitX=0;exitY=1;exitDx=0;exitDy=0;" parent="1" source="lQoL3OxBZK7-1ywt6j9J-34" target="lQoL3OxBZK7-1ywt6j9J-32" edge="1">
          <mxGeometry width="50" height="50" relative="1" as="geometry">
            <mxPoint x="-920" y="520" as="sourcePoint" />
            <mxPoint x="-870" y="470" as="targetPoint" />
          </mxGeometry>
        </mxCell>
        <mxCell id="lQoL3OxBZK7-1ywt6j9J-130" value="" style="endArrow=classic;html=1;rounded=0;entryX=0.5;entryY=0;entryDx=0;entryDy=0;exitX=0.345;exitY=0.974;exitDx=0;exitDy=0;exitPerimeter=0;" parent="1" source="lQoL3OxBZK7-1ywt6j9J-34" target="lQoL3OxBZK7-1ywt6j9J-28" edge="1">
          <mxGeometry width="50" height="50" relative="1" as="geometry">
            <mxPoint x="-580" y="490" as="sourcePoint" />
            <mxPoint x="-870" y="470" as="targetPoint" />
          </mxGeometry>
        </mxCell>
        <mxCell id="lQoL3OxBZK7-1ywt6j9J-131" value="" style="endArrow=classic;html=1;rounded=0;entryX=0.5;entryY=0;entryDx=0;entryDy=0;exitX=0.5;exitY=1;exitDx=0;exitDy=0;" parent="1" source="lQoL3OxBZK7-1ywt6j9J-34" target="lQoL3OxBZK7-1ywt6j9J-31" edge="1">
          <mxGeometry width="50" height="50" relative="1" as="geometry">
            <mxPoint x="-440" y="630" as="sourcePoint" />
            <mxPoint x="-390" y="580" as="targetPoint" />
          </mxGeometry>
        </mxCell>
        <mxCell id="lQoL3OxBZK7-1ywt6j9J-133" value="" style="endArrow=classic;html=1;rounded=0;entryX=0.5;entryY=0;entryDx=0;entryDy=0;exitX=0.691;exitY=0.957;exitDx=0;exitDy=0;exitPerimeter=0;" parent="1" source="lQoL3OxBZK7-1ywt6j9J-34" target="lQoL3OxBZK7-1ywt6j9J-33" edge="1">
          <mxGeometry width="50" height="50" relative="1" as="geometry">
            <mxPoint x="-440" y="630" as="sourcePoint" />
            <mxPoint x="-390" y="580" as="targetPoint" />
          </mxGeometry>
        </mxCell>
        <mxCell id="lQoL3OxBZK7-1ywt6j9J-134" value="" style="endArrow=classic;html=1;rounded=0;exitX=1;exitY=1;exitDx=0;exitDy=0;" parent="1" source="lQoL3OxBZK7-1ywt6j9J-34" target="lQoL3OxBZK7-1ywt6j9J-29" edge="1">
          <mxGeometry width="50" height="50" relative="1" as="geometry">
            <mxPoint x="-239" y="495.9999999999998" as="sourcePoint" />
            <mxPoint x="-142" y="590" as="targetPoint" />
          </mxGeometry>
        </mxCell>
        <mxCell id="lQoL3OxBZK7-1ywt6j9J-135" value="" style="endArrow=classic;html=1;rounded=0;entryX=0.5;entryY=0;entryDx=0;entryDy=0;exitX=1;exitY=0.5;exitDx=0;exitDy=0;" parent="1" source="lQoL3OxBZK7-1ywt6j9J-34" target="lQoL3OxBZK7-1ywt6j9J-30" edge="1">
          <mxGeometry width="50" height="50" relative="1" as="geometry">
            <mxPoint x="-229.57359312880726" y="492.6776695296635" as="sourcePoint" />
            <mxPoint x="-2" y="590" as="targetPoint" />
          </mxGeometry>
        </mxCell>
        <mxCell id="lQoL3OxBZK7-1ywt6j9J-136" value="" style="endArrow=classic;html=1;rounded=0;entryX=0.5;entryY=0;entryDx=0;entryDy=0;exitX=0.5;exitY=1;exitDx=0;exitDy=0;" parent="1" source="lQoL3OxBZK7-1ywt6j9J-50" target="lQoL3OxBZK7-1ywt6j9J-38" edge="1">
          <mxGeometry width="50" height="50" relative="1" as="geometry">
            <mxPoint x="-40" y="325" as="sourcePoint" />
            <mxPoint x="10" y="275" as="targetPoint" />
          </mxGeometry>
        </mxCell>
        <mxCell id="lQoL3OxBZK7-1ywt6j9J-137" value="" style="endArrow=classic;html=1;rounded=0;entryX=0.5;entryY=0;entryDx=0;entryDy=0;exitX=0;exitY=1;exitDx=0;exitDy=0;" parent="1" source="lQoL3OxBZK7-1ywt6j9J-38" edge="1">
          <mxGeometry width="50" height="50" relative="1" as="geometry">
            <mxPoint x="-40" y="325" as="sourcePoint" />
            <mxPoint x="120" y="445" as="targetPoint" />
          </mxGeometry>
        </mxCell>
        <mxCell id="lQoL3OxBZK7-1ywt6j9J-138" value="" style="endArrow=classic;html=1;rounded=0;exitX=0.5;exitY=1;exitDx=0;exitDy=0;" parent="1" source="lQoL3OxBZK7-1ywt6j9J-38" target="lQoL3OxBZK7-1ywt6j9J-44" edge="1">
          <mxGeometry width="50" height="50" relative="1" as="geometry">
            <mxPoint x="187.3232964096569" y="317.57276030190553" as="sourcePoint" />
            <mxPoint x="130" y="385" as="targetPoint" />
          </mxGeometry>
        </mxCell>
        <mxCell id="lQoL3OxBZK7-1ywt6j9J-139" value="" style="endArrow=none;dashed=1;html=1;rounded=0;entryX=0.5;entryY=1;entryDx=0;entryDy=0;" parent="1" target="lQoL3OxBZK7-1ywt6j9J-21" edge="1">
          <mxGeometry width="50" height="50" relative="1" as="geometry">
            <mxPoint x="-1226" y="1000" as="sourcePoint" />
            <mxPoint x="-930" y="460" as="targetPoint" />
          </mxGeometry>
        </mxCell>
        <mxCell id="lQoL3OxBZK7-1ywt6j9J-140" value="" style="endArrow=none;dashed=1;html=1;rounded=0;" parent="1" edge="1">
          <mxGeometry width="50" height="50" relative="1" as="geometry">
            <mxPoint x="-1230" y="1000" as="sourcePoint" />
            <mxPoint x="-80" y="1000" as="targetPoint" />
          </mxGeometry>
        </mxCell>
        <mxCell id="lQoL3OxBZK7-1ywt6j9J-142" value="" style="endArrow=none;dashed=1;html=1;rounded=0;entryX=0.5;entryY=1;entryDx=0;entryDy=0;" parent="1" target="lQoL3OxBZK7-1ywt6j9J-48" edge="1">
          <mxGeometry width="50" height="50" relative="1" as="geometry">
            <mxPoint x="-80" y="1000" as="sourcePoint" />
            <mxPoint x="-452" y="610" as="targetPoint" />
          </mxGeometry>
        </mxCell>
        <mxCell id="lQoL3OxBZK7-1ywt6j9J-144" value="" style="endArrow=none;dashed=1;html=1;rounded=0;" parent="1" edge="1">
          <mxGeometry width="50" height="50" relative="1" as="geometry">
            <mxPoint x="-86.75" y="296" as="sourcePoint" />
            <mxPoint x="-66.25" y="296" as="targetPoint" />
            <Array as="points" />
          </mxGeometry>
        </mxCell>
        <mxCell id="lQoL3OxBZK7-1ywt6j9J-145" value="" style="endArrow=classic;html=1;rounded=0;entryX=0;entryY=0.5;entryDx=0;entryDy=0;" parent="1" target="lQoL3OxBZK7-1ywt6j9J-41" edge="1">
          <mxGeometry width="50" height="50" relative="1" as="geometry">
            <mxPoint x="270" y="275" as="sourcePoint" />
            <mxPoint x="-150" y="585" as="targetPoint" />
          </mxGeometry>
        </mxCell>
        <mxCell id="lQoL3OxBZK7-1ywt6j9J-146" value="" style="endArrow=classic;html=1;rounded=0;entryX=0;entryY=0.5;entryDx=0;entryDy=0;" parent="1" source="lQoL3OxBZK7-1ywt6j9J-38" target="lQoL3OxBZK7-1ywt6j9J-49" edge="1">
          <mxGeometry width="50" height="50" relative="1" as="geometry">
            <mxPoint x="280" y="285" as="sourcePoint" />
            <mxPoint x="340" y="235" as="targetPoint" />
          </mxGeometry>
        </mxCell>
        <mxCell id="lQoL3OxBZK7-1ywt6j9J-147" value="" style="endArrow=classic;html=1;rounded=0;entryX=1;entryY=0.5;entryDx=0;entryDy=0;exitX=0;exitY=0.5;exitDx=0;exitDy=0;" parent="1" source="lQoL3OxBZK7-1ywt6j9J-38" target="lQoL3OxBZK7-1ywt6j9J-48" edge="1">
          <mxGeometry width="50" height="50" relative="1" as="geometry">
            <mxPoint x="48" y="290" as="sourcePoint" />
            <mxPoint x="108" y="240" as="targetPoint" />
          </mxGeometry>
        </mxCell>
        <mxCell id="lQoL3OxBZK7-1ywt6j9J-148" value="" style="endArrow=classic;html=1;rounded=0;entryX=0.5;entryY=0;entryDx=0;entryDy=0;exitX=0.623;exitY=1.002;exitDx=0;exitDy=0;exitPerimeter=0;" parent="1" source="lQoL3OxBZK7-1ywt6j9J-38" target="lQoL3OxBZK7-1ywt6j9J-43" edge="1">
          <mxGeometry width="50" height="50" relative="1" as="geometry">
            <mxPoint x="120" y="385" as="sourcePoint" />
            <mxPoint x="170" y="335" as="targetPoint" />
          </mxGeometry>
        </mxCell>
        <mxCell id="lQoL3OxBZK7-1ywt6j9J-149" value="" style="endArrow=classic;html=1;rounded=0;entryX=0.5;entryY=0;entryDx=0;entryDy=0;exitX=0.774;exitY=0.901;exitDx=0;exitDy=0;exitPerimeter=0;" parent="1" source="lQoL3OxBZK7-1ywt6j9J-38" target="lQoL3OxBZK7-1ywt6j9J-42" edge="1">
          <mxGeometry width="50" height="50" relative="1" as="geometry">
            <mxPoint x="260" y="385" as="sourcePoint" />
            <mxPoint x="310" y="335" as="targetPoint" />
          </mxGeometry>
        </mxCell>
        <mxCell id="lQoL3OxBZK7-1ywt6j9J-150" value="" style="endArrow=classic;html=1;rounded=0;entryX=1;entryY=0;entryDx=0;entryDy=0;exitX=0;exitY=0.5;exitDx=0;exitDy=0;" parent="1" source="lQoL3OxBZK7-1ywt6j9J-1" target="lQoL3OxBZK7-1ywt6j9J-2" edge="1">
          <mxGeometry width="50" height="50" relative="1" as="geometry">
            <mxPoint x="-490" y="750" as="sourcePoint" />
            <mxPoint x="-440" y="700" as="targetPoint" />
          </mxGeometry>
        </mxCell>
        <mxCell id="lQoL3OxBZK7-1ywt6j9J-151" value="" style="endArrow=classic;html=1;rounded=0;entryX=1;entryY=0;entryDx=0;entryDy=0;" parent="1" source="lQoL3OxBZK7-1ywt6j9J-1" target="lQoL3OxBZK7-1ywt6j9J-8" edge="1">
          <mxGeometry width="50" height="50" relative="1" as="geometry">
            <mxPoint x="-980" y="520" as="sourcePoint" />
            <mxPoint x="-930" y="470" as="targetPoint" />
          </mxGeometry>
        </mxCell>
        <mxCell id="lQoL3OxBZK7-1ywt6j9J-152" value="" style="endArrow=classic;html=1;rounded=0;entryX=1;entryY=0;entryDx=0;entryDy=0;exitX=0.047;exitY=0.691;exitDx=0;exitDy=0;exitPerimeter=0;" parent="1" source="lQoL3OxBZK7-1ywt6j9J-1" target="lQoL3OxBZK7-1ywt6j9J-18" edge="1">
          <mxGeometry width="50" height="50" relative="1" as="geometry">
            <mxPoint x="-230" y="520" as="sourcePoint" />
            <mxPoint x="-180" y="470" as="targetPoint" />
          </mxGeometry>
        </mxCell>
        <mxCell id="lQoL3OxBZK7-1ywt6j9J-153" value="" style="endArrow=classic;html=1;rounded=0;entryX=0.962;entryY=0.292;entryDx=0;entryDy=0;entryPerimeter=0;exitX=0;exitY=1;exitDx=0;exitDy=0;" parent="1" source="lQoL3OxBZK7-1ywt6j9J-1" target="lQoL3OxBZK7-1ywt6j9J-50" edge="1">
          <mxGeometry width="50" height="50" relative="1" as="geometry">
            <mxPoint x="-70" y="220" as="sourcePoint" />
            <mxPoint x="-20" y="170" as="targetPoint" />
          </mxGeometry>
        </mxCell>
        <mxCell id="lQoL3OxBZK7-1ywt6j9J-154" value="" style="endArrow=classic;html=1;rounded=0;entryX=0.5;entryY=0;entryDx=0;entryDy=0;exitX=0.5;exitY=1;exitDx=0;exitDy=0;" parent="1" source="lQoL3OxBZK7-1ywt6j9J-1" target="lQoL3OxBZK7-1ywt6j9J-51" edge="1">
          <mxGeometry width="50" height="50" relative="1" as="geometry">
            <mxPoint x="-70" y="220" as="sourcePoint" />
            <mxPoint x="-20" y="170" as="targetPoint" />
          </mxGeometry>
        </mxCell>
        <mxCell id="lQoL3OxBZK7-1ywt6j9J-155" value="" style="endArrow=classic;html=1;rounded=0;exitX=0.5;exitY=1;exitDx=0;exitDy=0;entryX=0.5;entryY=0;entryDx=0;entryDy=0;" parent="1" source="lQoL3OxBZK7-1ywt6j9J-51" target="lQoL3OxBZK7-1ywt6j9J-52" edge="1">
          <mxGeometry width="50" height="50" relative="1" as="geometry">
            <mxPoint x="970" y="215" as="sourcePoint" />
            <mxPoint x="1150" y="245" as="targetPoint" />
          </mxGeometry>
        </mxCell>
        <mxCell id="lQoL3OxBZK7-1ywt6j9J-157" value="" style="endArrow=classic;html=1;rounded=0;entryX=0.583;entryY=0;entryDx=0;entryDy=0;entryPerimeter=0;exitX=0.322;exitY=0.96;exitDx=0;exitDy=0;exitPerimeter=0;" parent="1" source="lQoL3OxBZK7-1ywt6j9J-52" target="lQoL3OxBZK7-1ywt6j9J-56" edge="1">
          <mxGeometry width="50" height="50" relative="1" as="geometry">
            <mxPoint x="960" y="435" as="sourcePoint" />
            <mxPoint x="1010" y="385" as="targetPoint" />
          </mxGeometry>
        </mxCell>
        <mxCell id="lQoL3OxBZK7-1ywt6j9J-158" value="" style="endArrow=classic;html=1;rounded=0;entryX=0.5;entryY=0;entryDx=0;entryDy=0;exitX=0.66;exitY=0.97;exitDx=0;exitDy=0;exitPerimeter=0;" parent="1" source="lQoL3OxBZK7-1ywt6j9J-52" target="lQoL3OxBZK7-1ywt6j9J-57" edge="1">
          <mxGeometry width="50" height="50" relative="1" as="geometry">
            <mxPoint x="1138.6400000000003" y="328" as="sourcePoint" />
            <mxPoint x="1089.96" y="455.0000000000001" as="targetPoint" />
          </mxGeometry>
        </mxCell>
        <mxCell id="lQoL3OxBZK7-1ywt6j9J-159" value="" style="endArrow=classic;html=1;rounded=0;entryX=0.5;entryY=0;entryDx=0;entryDy=0;exitX=0.895;exitY=0.824;exitDx=0;exitDy=0;exitPerimeter=0;" parent="1" source="lQoL3OxBZK7-1ywt6j9J-52" target="lQoL3OxBZK7-1ywt6j9J-58" edge="1">
          <mxGeometry width="50" height="50" relative="1" as="geometry">
            <mxPoint x="1200" y="345" as="sourcePoint" />
            <mxPoint x="1560" y="445" as="targetPoint" />
          </mxGeometry>
        </mxCell>
        <mxCell id="lQoL3OxBZK7-1ywt6j9J-160" value="" style="endArrow=classic;html=1;rounded=0;entryX=0;entryY=0.5;entryDx=0;entryDy=0;exitX=1;exitY=0.5;exitDx=0;exitDy=0;" parent="1" source="lQoL3OxBZK7-1ywt6j9J-52" target="lQoL3OxBZK7-1ywt6j9J-54" edge="1">
          <mxGeometry width="50" height="50" relative="1" as="geometry">
            <mxPoint x="1210" y="285" as="sourcePoint" />
            <mxPoint x="1260" y="235" as="targetPoint" />
          </mxGeometry>
        </mxCell>
        <mxCell id="lQoL3OxBZK7-1ywt6j9J-161" value="" style="endArrow=classic;html=1;rounded=0;entryX=0.5;entryY=0;entryDx=0;entryDy=0;exitX=1;exitY=1;exitDx=0;exitDy=0;" parent="1" source="lQoL3OxBZK7-1ywt6j9J-1" target="lQoL3OxBZK7-1ywt6j9J-59" edge="1">
          <mxGeometry width="50" height="50" relative="1" as="geometry">
            <mxPoint x="450" y="280" as="sourcePoint" />
            <mxPoint x="500" y="230" as="targetPoint" />
          </mxGeometry>
        </mxCell>
        <mxCell id="lQoL3OxBZK7-1ywt6j9J-162" value="" style="endArrow=classic;html=1;rounded=0;exitX=0.5;exitY=1;exitDx=0;exitDy=0;entryX=0.5;entryY=0;entryDx=0;entryDy=0;" parent="1" source="lQoL3OxBZK7-1ywt6j9J-59" target="lQoL3OxBZK7-1ywt6j9J-60" edge="1">
          <mxGeometry width="50" height="50" relative="1" as="geometry">
            <mxPoint x="340" y="280" as="sourcePoint" />
            <mxPoint x="690" y="260" as="targetPoint" />
          </mxGeometry>
        </mxCell>
        <mxCell id="lQoL3OxBZK7-1ywt6j9J-163" value="" style="endArrow=classic;html=1;rounded=0;entryX=0;entryY=0.5;entryDx=0;entryDy=0;exitX=1;exitY=0.5;exitDx=0;exitDy=0;" parent="1" source="lQoL3OxBZK7-1ywt6j9J-60" target="lQoL3OxBZK7-1ywt6j9J-63" edge="1">
          <mxGeometry width="50" height="50" relative="1" as="geometry">
            <mxPoint x="410" y="360" as="sourcePoint" />
            <mxPoint x="780" y="290" as="targetPoint" />
          </mxGeometry>
        </mxCell>
        <mxCell id="lQoL3OxBZK7-1ywt6j9J-166" value="" style="endArrow=classic;html=1;rounded=0;entryX=0.5;entryY=0;entryDx=0;entryDy=0;exitX=0.262;exitY=0.936;exitDx=0;exitDy=0;exitPerimeter=0;" parent="1" source="lQoL3OxBZK7-1ywt6j9J-60" target="lQoL3OxBZK7-1ywt6j9J-65" edge="1">
          <mxGeometry width="50" height="50" relative="1" as="geometry">
            <mxPoint x="430" y="390" as="sourcePoint" />
            <mxPoint x="480" y="340" as="targetPoint" />
          </mxGeometry>
        </mxCell>
        <mxCell id="lQoL3OxBZK7-1ywt6j9J-167" value="" style="endArrow=classic;html=1;rounded=0;entryX=0.5;entryY=0;entryDx=0;entryDy=0;exitX=0.588;exitY=0.984;exitDx=0;exitDy=0;exitPerimeter=0;" parent="1" source="lQoL3OxBZK7-1ywt6j9J-60" target="lQoL3OxBZK7-1ywt6j9J-66" edge="1">
          <mxGeometry width="50" height="50" relative="1" as="geometry">
            <mxPoint x="430" y="390" as="sourcePoint" />
            <mxPoint x="480" y="340" as="targetPoint" />
          </mxGeometry>
        </mxCell>
        <mxCell id="lQoL3OxBZK7-1ywt6j9J-169" value="" style="endArrow=classic;html=1;rounded=0;entryX=0.5;entryY=0;entryDx=0;entryDy=0;" parent="1" source="lQoL3OxBZK7-1ywt6j9J-67" target="lQoL3OxBZK7-1ywt6j9J-72" edge="1">
          <mxGeometry width="50" height="50" relative="1" as="geometry">
            <mxPoint x="1360" y="395" as="sourcePoint" />
            <mxPoint x="1630" y="265" as="targetPoint" />
          </mxGeometry>
        </mxCell>
        <mxCell id="lQoL3OxBZK7-1ywt6j9J-171" value="" style="endArrow=classic;html=1;rounded=0;entryX=0.5;entryY=0;entryDx=0;entryDy=0;exitX=0;exitY=1;exitDx=0;exitDy=0;" parent="1" source="lQoL3OxBZK7-1ywt6j9J-72" target="lQoL3OxBZK7-1ywt6j9J-69" edge="1">
          <mxGeometry width="50" height="50" relative="1" as="geometry">
            <mxPoint x="1550" y="265" as="sourcePoint" />
            <mxPoint x="1390" y="295" as="targetPoint" />
          </mxGeometry>
        </mxCell>
        <mxCell id="lQoL3OxBZK7-1ywt6j9J-172" value="" style="endArrow=classic;html=1;rounded=0;entryX=0.5;entryY=0;entryDx=0;entryDy=0;exitX=0.546;exitY=0.994;exitDx=0;exitDy=0;exitPerimeter=0;" parent="1" source="lQoL3OxBZK7-1ywt6j9J-72" target="lQoL3OxBZK7-1ywt6j9J-70" edge="1">
          <mxGeometry width="50" height="50" relative="1" as="geometry">
            <mxPoint x="1430" y="395" as="sourcePoint" />
            <mxPoint x="1480" y="345" as="targetPoint" />
          </mxGeometry>
        </mxCell>
        <mxCell id="lQoL3OxBZK7-1ywt6j9J-174" value="" style="endArrow=none;dashed=1;html=1;rounded=0;entryX=0;entryY=1;entryDx=0;entryDy=0;" parent="1" target="lQoL3OxBZK7-1ywt6j9J-54" edge="1">
          <mxGeometry width="50" height="50" relative="1" as="geometry">
            <mxPoint x="1400" y="685" as="sourcePoint" />
            <mxPoint x="1530" y="345" as="targetPoint" />
          </mxGeometry>
        </mxCell>
        <mxCell id="lQoL3OxBZK7-1ywt6j9J-175" value="" style="endArrow=none;dashed=1;html=1;rounded=0;entryX=1;entryY=0.5;entryDx=0;entryDy=0;exitX=0;exitY=0.5;exitDx=0;exitDy=0;" parent="1" source="lQoL3OxBZK7-1ywt6j9J-71" target="lQoL3OxBZK7-1ywt6j9J-54" edge="1">
          <mxGeometry width="50" height="50" relative="1" as="geometry">
            <mxPoint x="1230" y="595" as="sourcePoint" />
            <mxPoint x="1120" y="425" as="targetPoint" />
          </mxGeometry>
        </mxCell>
        <mxCell id="lQoL3OxBZK7-1ywt6j9J-176" value="" style="endArrow=none;dashed=1;html=1;rounded=0;" parent="1" edge="1">
          <mxGeometry width="50" height="50" relative="1" as="geometry">
            <mxPoint x="860" y="684" as="sourcePoint" />
            <mxPoint x="1400" y="684" as="targetPoint" />
          </mxGeometry>
        </mxCell>
        <mxCell id="lQoL3OxBZK7-1ywt6j9J-178" value="" style="endArrow=none;dashed=1;html=1;rounded=0;" parent="1" edge="1">
          <mxGeometry width="50" height="50" relative="1" as="geometry">
            <mxPoint x="1490" y="302" as="sourcePoint" />
            <mxPoint x="1510" y="302" as="targetPoint" />
          </mxGeometry>
        </mxCell>
        <mxCell id="lQoL3OxBZK7-1ywt6j9J-179" value="" style="endArrow=classic;html=1;rounded=0;entryX=0;entryY=0.5;entryDx=0;entryDy=0;" parent="1" target="lQoL3OxBZK7-1ywt6j9J-68" edge="1">
          <mxGeometry width="50" height="50" relative="1" as="geometry">
            <mxPoint x="1690" y="295" as="sourcePoint" />
            <mxPoint x="1370" y="325" as="targetPoint" />
          </mxGeometry>
        </mxCell>
        <mxCell id="lQoL3OxBZK7-1ywt6j9J-180" value="" style="endArrow=classic;html=1;rounded=0;entryX=1;entryY=0.5;entryDx=0;entryDy=0;exitX=0;exitY=0.5;exitDx=0;exitDy=0;" parent="1" source="lQoL3OxBZK7-1ywt6j9J-72" target="lQoL3OxBZK7-1ywt6j9J-71" edge="1">
          <mxGeometry width="50" height="50" relative="1" as="geometry">
            <mxPoint x="1440" y="375" as="sourcePoint" />
            <mxPoint x="1490" y="325" as="targetPoint" />
          </mxGeometry>
        </mxCell>
        <mxCell id="lQoL3OxBZK7-1ywt6j9J-181" value="" style="endArrow=classic;html=1;rounded=0;entryX=1;entryY=0.5;entryDx=0;entryDy=0;exitX=0;exitY=0.5;exitDx=0;exitDy=0;" parent="1" source="lQoL3OxBZK7-1ywt6j9J-75" target="lQoL3OxBZK7-1ywt6j9J-78" edge="1">
          <mxGeometry width="50" height="50" relative="1" as="geometry">
            <mxPoint x="2130" y="480" as="sourcePoint" />
            <mxPoint x="2180" y="430" as="targetPoint" />
          </mxGeometry>
        </mxCell>
        <mxCell id="lQoL3OxBZK7-1ywt6j9J-182" value="" style="endArrow=classic;html=1;rounded=0;entryX=0;entryY=0.5;entryDx=0;entryDy=0;exitX=1;exitY=0.5;exitDx=0;exitDy=0;" parent="1" source="lQoL3OxBZK7-1ywt6j9J-75" target="lQoL3OxBZK7-1ywt6j9J-77" edge="1">
          <mxGeometry width="50" height="50" relative="1" as="geometry">
            <mxPoint x="2080.25" y="465" as="sourcePoint" />
            <mxPoint x="2130.25" y="415" as="targetPoint" />
          </mxGeometry>
        </mxCell>
        <mxCell id="lQoL3OxBZK7-1ywt6j9J-183" value="" style="endArrow=classic;html=1;rounded=0;entryX=0.5;entryY=0;entryDx=0;entryDy=0;exitX=0;exitY=1;exitDx=0;exitDy=0;" parent="1" source="lQoL3OxBZK7-1ywt6j9J-75" target="lQoL3OxBZK7-1ywt6j9J-79" edge="1">
          <mxGeometry width="50" height="50" relative="1" as="geometry">
            <mxPoint x="2080.25" y="465" as="sourcePoint" />
            <mxPoint x="2130.25" y="415" as="targetPoint" />
          </mxGeometry>
        </mxCell>
        <mxCell id="lQoL3OxBZK7-1ywt6j9J-184" value="" style="endArrow=classic;html=1;rounded=0;entryX=0.5;entryY=0;entryDx=0;entryDy=0;exitX=0.5;exitY=1;exitDx=0;exitDy=0;" parent="1" source="lQoL3OxBZK7-1ywt6j9J-75" target="lQoL3OxBZK7-1ywt6j9J-80" edge="1">
          <mxGeometry width="50" height="50" relative="1" as="geometry">
            <mxPoint x="2080.25" y="465" as="sourcePoint" />
            <mxPoint x="2130.25" y="415" as="targetPoint" />
          </mxGeometry>
        </mxCell>
        <mxCell id="lQoL3OxBZK7-1ywt6j9J-185" value="" style="endArrow=classic;html=1;rounded=0;exitX=1;exitY=1;exitDx=0;exitDy=0;entryX=0.443;entryY=0.013;entryDx=0;entryDy=0;entryPerimeter=0;" parent="1" source="lQoL3OxBZK7-1ywt6j9J-75" target="lQoL3OxBZK7-1ywt6j9J-81" edge="1">
          <mxGeometry width="50" height="50" relative="1" as="geometry">
            <mxPoint x="2080.25" y="465" as="sourcePoint" />
            <mxPoint x="2230.25" y="435" as="targetPoint" />
          </mxGeometry>
        </mxCell>
        <mxCell id="lQoL3OxBZK7-1ywt6j9J-186" value="" style="endArrow=classic;html=1;rounded=0;entryX=0.5;entryY=0;entryDx=0;entryDy=0;exitX=0.958;exitY=0.733;exitDx=0;exitDy=0;exitPerimeter=0;" parent="1" source="lQoL3OxBZK7-1ywt6j9J-1" target="lQoL3OxBZK7-1ywt6j9J-67" edge="1">
          <mxGeometry width="50" height="50" relative="1" as="geometry">
            <mxPoint x="907" y="110" as="sourcePoint" />
            <mxPoint x="957" y="60" as="targetPoint" />
          </mxGeometry>
        </mxCell>
        <mxCell id="lQoL3OxBZK7-1ywt6j9J-188" value="" style="endArrow=classic;html=1;rounded=0;entryX=0;entryY=0;entryDx=0;entryDy=0;exitX=0.991;exitY=0.589;exitDx=0;exitDy=0;exitPerimeter=0;" parent="1" source="lQoL3OxBZK7-1ywt6j9J-1" target="lQoL3OxBZK7-1ywt6j9J-74" edge="1">
          <mxGeometry width="50" height="50" relative="1" as="geometry">
            <mxPoint x="940" y="210" as="sourcePoint" />
            <mxPoint x="990" y="160" as="targetPoint" />
          </mxGeometry>
        </mxCell>
        <mxCell id="lQoL3OxBZK7-1ywt6j9J-189" value="" style="endArrow=classic;html=1;rounded=0;entryX=0.5;entryY=0;entryDx=0;entryDy=0;exitX=1;exitY=0.5;exitDx=0;exitDy=0;" parent="1" source="lQoL3OxBZK7-1ywt6j9J-1" target="lQoL3OxBZK7-1ywt6j9J-82" edge="1">
          <mxGeometry width="50" height="50" relative="1" as="geometry">
            <mxPoint x="1100" y="210" as="sourcePoint" />
            <mxPoint x="1150" y="160" as="targetPoint" />
          </mxGeometry>
        </mxCell>
        <mxCell id="lQoL3OxBZK7-1ywt6j9J-190" value="" style="endArrow=classic;html=1;rounded=0;entryX=0;entryY=0;entryDx=0;entryDy=0;exitX=0.967;exitY=0.34;exitDx=0;exitDy=0;exitPerimeter=0;" parent="1" source="lQoL3OxBZK7-1ywt6j9J-1" target="lQoL3OxBZK7-1ywt6j9J-93" edge="1">
          <mxGeometry width="50" height="50" relative="1" as="geometry">
            <mxPoint x="1010" y="320" as="sourcePoint" />
            <mxPoint x="1930" y="80" as="targetPoint" />
          </mxGeometry>
        </mxCell>
        <mxCell id="lQoL3OxBZK7-1ywt6j9J-191" value="" style="endArrow=classic;html=1;rounded=0;entryX=0.5;entryY=0;entryDx=0;entryDy=0;exitX=0.5;exitY=1;exitDx=0;exitDy=0;" parent="1" source="lQoL3OxBZK7-1ywt6j9J-82" target="lQoL3OxBZK7-1ywt6j9J-83" edge="1">
          <mxGeometry width="50" height="50" relative="1" as="geometry">
            <mxPoint x="2490" y="510" as="sourcePoint" />
            <mxPoint x="2540" y="460" as="targetPoint" />
          </mxGeometry>
        </mxCell>
        <mxCell id="lQoL3OxBZK7-1ywt6j9J-192" value="" style="endArrow=classic;html=1;rounded=0;entryX=0.5;entryY=0;entryDx=0;entryDy=0;exitX=0.25;exitY=1;exitDx=0;exitDy=0;exitPerimeter=0;" parent="1" source="lQoL3OxBZK7-1ywt6j9J-83" target="lQoL3OxBZK7-1ywt6j9J-86" edge="1">
          <mxGeometry width="50" height="50" relative="1" as="geometry">
            <mxPoint x="2490" y="510" as="sourcePoint" />
            <mxPoint x="2540" y="460" as="targetPoint" />
          </mxGeometry>
        </mxCell>
        <mxCell id="lQoL3OxBZK7-1ywt6j9J-193" value="" style="endArrow=classic;html=1;rounded=0;entryX=0.5;entryY=0;entryDx=0;entryDy=0;exitX=0.578;exitY=1.04;exitDx=0;exitDy=0;exitPerimeter=0;" parent="1" source="lQoL3OxBZK7-1ywt6j9J-83" target="lQoL3OxBZK7-1ywt6j9J-87" edge="1">
          <mxGeometry width="50" height="50" relative="1" as="geometry">
            <mxPoint x="2490" y="510" as="sourcePoint" />
            <mxPoint x="2540" y="460" as="targetPoint" />
          </mxGeometry>
        </mxCell>
        <mxCell id="lQoL3OxBZK7-1ywt6j9J-194" value="" style="endArrow=classic;html=1;rounded=0;entryX=0.5;entryY=0;entryDx=0;entryDy=0;exitX=1;exitY=1;exitDx=0;exitDy=0;" parent="1" source="lQoL3OxBZK7-1ywt6j9J-83" target="lQoL3OxBZK7-1ywt6j9J-88" edge="1">
          <mxGeometry width="50" height="50" relative="1" as="geometry">
            <mxPoint x="2490" y="510" as="sourcePoint" />
            <mxPoint x="2540" y="460" as="targetPoint" />
          </mxGeometry>
        </mxCell>
        <mxCell id="lQoL3OxBZK7-1ywt6j9J-195" value="" style="endArrow=classic;html=1;rounded=0;entryX=0;entryY=0.5;entryDx=0;entryDy=0;exitX=1;exitY=0.5;exitDx=0;exitDy=0;" parent="1" source="lQoL3OxBZK7-1ywt6j9J-83" target="lQoL3OxBZK7-1ywt6j9J-85" edge="1">
          <mxGeometry width="50" height="50" relative="1" as="geometry">
            <mxPoint x="2490" y="510" as="sourcePoint" />
            <mxPoint x="2540" y="460" as="targetPoint" />
          </mxGeometry>
        </mxCell>
        <mxCell id="lQoL3OxBZK7-1ywt6j9J-196" value="" style="endArrow=classic;html=1;rounded=0;entryX=0.5;entryY=0;entryDx=0;entryDy=0;exitX=0.961;exitY=0.707;exitDx=0;exitDy=0;exitPerimeter=0;" parent="1" source="lQoL3OxBZK7-1ywt6j9J-83" target="lQoL3OxBZK7-1ywt6j9J-89" edge="1">
          <mxGeometry width="50" height="50" relative="1" as="geometry">
            <mxPoint x="2660" y="310" as="sourcePoint" />
            <mxPoint x="2540" y="460" as="targetPoint" />
          </mxGeometry>
        </mxCell>
        <mxCell id="lQoL3OxBZK7-1ywt6j9J-197" value="" style="endArrow=classic;html=1;rounded=0;entryX=1;entryY=0.5;entryDx=0;entryDy=0;exitX=0;exitY=0.5;exitDx=0;exitDy=0;" parent="1" source="lQoL3OxBZK7-1ywt6j9J-83" edge="1" target="lQoL3OxBZK7-1ywt6j9J-198">
          <mxGeometry width="50" height="50" relative="1" as="geometry">
            <mxPoint x="2580" y="370" as="sourcePoint" />
            <mxPoint x="2504.5" y="300" as="targetPoint" />
          </mxGeometry>
        </mxCell>
        <mxCell id="lQoL3OxBZK7-1ywt6j9J-198" value="PID" style="rhombus;whiteSpace=wrap;html=1;fillColor=none;" parent="1" vertex="1">
          <mxGeometry x="2383" y="260" width="67" height="70" as="geometry" />
        </mxCell>
        <mxCell id="lQoL3OxBZK7-1ywt6j9J-199" value="" style="endArrow=none;dashed=1;html=1;rounded=0;" parent="1" edge="1">
          <mxGeometry width="50" height="50" relative="1" as="geometry">
            <mxPoint x="2406.5" y="307" as="sourcePoint" />
            <mxPoint x="2426.5" y="307" as="targetPoint" />
          </mxGeometry>
        </mxCell>
        <mxCell id="lQoL3OxBZK7-1ywt6j9J-200" value="RID" style="rhombus;whiteSpace=wrap;html=1;fillColor=none;" parent="1" vertex="1">
          <mxGeometry x="510" y="255" width="67" height="70" as="geometry" />
        </mxCell>
        <mxCell id="lQoL3OxBZK7-1ywt6j9J-202" value="" style="endArrow=none;dashed=1;html=1;rounded=0;" parent="1" edge="1">
          <mxGeometry width="50" height="50" relative="1" as="geometry">
            <mxPoint x="843.5" y="296" as="sourcePoint" />
            <mxPoint x="863.5" y="296" as="targetPoint" />
          </mxGeometry>
        </mxCell>
        <mxCell id="lQoL3OxBZK7-1ywt6j9J-204" value="" style="endArrow=classic;html=1;rounded=0;entryX=1;entryY=0.5;entryDx=0;entryDy=0;exitX=0;exitY=0.5;exitDx=0;exitDy=0;" parent="1" source="lQoL3OxBZK7-1ywt6j9J-60" target="lQoL3OxBZK7-1ywt6j9J-200" edge="1">
          <mxGeometry width="50" height="50" relative="1" as="geometry">
            <mxPoint x="760" y="565" as="sourcePoint" />
            <mxPoint x="810" y="515" as="targetPoint" />
          </mxGeometry>
        </mxCell>
        <mxCell id="lQoL3OxBZK7-1ywt6j9J-205" value="" style="endArrow=none;dashed=1;html=1;rounded=0;entryX=0.5;entryY=1;entryDx=0;entryDy=0;" parent="1" target="lQoL3OxBZK7-1ywt6j9J-63" edge="1">
          <mxGeometry width="50" height="50" relative="1" as="geometry">
            <mxPoint x="860" y="685" as="sourcePoint" />
            <mxPoint x="1130" y="515" as="targetPoint" />
          </mxGeometry>
        </mxCell>
        <mxCell id="lQoL3OxBZK7-1ywt6j9J-208" value="" style="endArrow=none;dashed=1;html=1;rounded=0;entryX=0.5;entryY=1;entryDx=0;entryDy=0;" parent="1" target="lQoL3OxBZK7-1ywt6j9J-78" edge="1">
          <mxGeometry width="50" height="50" relative="1" as="geometry">
            <mxPoint x="1924" y="650" as="sourcePoint" />
            <mxPoint x="1720" y="580" as="targetPoint" />
          </mxGeometry>
        </mxCell>
        <mxCell id="lQoL3OxBZK7-1ywt6j9J-209" value="" style="endArrow=none;dashed=1;html=1;rounded=0;entryX=0.876;entryY=0.626;entryDx=0;entryDy=0;entryPerimeter=0;" parent="1" target="lQoL3OxBZK7-1ywt6j9J-54" edge="1">
          <mxGeometry width="50" height="50" relative="1" as="geometry">
            <mxPoint x="1439" y="645" as="sourcePoint" />
            <mxPoint x="1110" y="575" as="targetPoint" />
          </mxGeometry>
        </mxCell>
        <mxCell id="lQoL3OxBZK7-1ywt6j9J-210" value="" style="endArrow=none;dashed=1;html=1;rounded=0;" parent="1" edge="1">
          <mxGeometry width="50" height="50" relative="1" as="geometry">
            <mxPoint x="1930" y="645" as="sourcePoint" />
            <mxPoint x="1440" y="645" as="targetPoint" />
          </mxGeometry>
        </mxCell>
        <mxCell id="lQoL3OxBZK7-1ywt6j9J-211" value="" style="endArrow=none;dashed=1;html=1;rounded=0;entryX=0.5;entryY=1;entryDx=0;entryDy=0;" parent="1" target="lQoL3OxBZK7-1ywt6j9J-198" edge="1">
          <mxGeometry width="50" height="50" relative="1" as="geometry">
            <mxPoint x="2417" y="710" as="sourcePoint" />
            <mxPoint x="2220" y="420" as="targetPoint" />
          </mxGeometry>
        </mxCell>
        <mxCell id="lQoL3OxBZK7-1ywt6j9J-212" value="" style="endArrow=none;dashed=1;html=1;rounded=0;entryX=0.5;entryY=1;entryDx=0;entryDy=0;" parent="1" target="lQoL3OxBZK7-1ywt6j9J-54" edge="1">
          <mxGeometry width="50" height="50" relative="1" as="geometry">
            <mxPoint x="1420" y="718.7647202435662" as="sourcePoint" />
            <mxPoint x="1940" y="415" as="targetPoint" />
          </mxGeometry>
        </mxCell>
        <mxCell id="lQoL3OxBZK7-1ywt6j9J-213" value="" style="endArrow=none;dashed=1;html=1;rounded=0;" parent="1" edge="1">
          <mxGeometry width="50" height="50" relative="1" as="geometry">
            <mxPoint x="1420" y="715" as="sourcePoint" />
            <mxPoint x="2420" y="715" as="targetPoint" />
          </mxGeometry>
        </mxCell>
        <mxCell id="lQoL3OxBZK7-1ywt6j9J-214" value="" style="endArrow=none;dashed=1;html=1;rounded=0;" parent="1" edge="1">
          <mxGeometry width="50" height="50" relative="1" as="geometry">
            <mxPoint x="1913.5" y="311" as="sourcePoint" />
            <mxPoint x="1933.5" y="311" as="targetPoint" />
          </mxGeometry>
        </mxCell>
        <mxCell id="lQoL3OxBZK7-1ywt6j9J-215" value="" style="endArrow=classic;html=1;rounded=0;exitX=0.5;exitY=1;exitDx=0;exitDy=0;entryX=0.5;entryY=0;entryDx=0;entryDy=0;" parent="1" source="lQoL3OxBZK7-1ywt6j9J-74" target="lQoL3OxBZK7-1ywt6j9J-75" edge="1">
          <mxGeometry width="50" height="50" relative="1" as="geometry">
            <mxPoint x="1970.25" y="275" as="sourcePoint" />
            <mxPoint x="2180.25" y="275" as="targetPoint" />
          </mxGeometry>
        </mxCell>
        <mxCell id="lQoL3OxBZK7-1ywt6j9J-216" value="" style="endArrow=classic;html=1;rounded=0;entryX=0.5;entryY=0;entryDx=0;entryDy=0;exitX=0.5;exitY=1;exitDx=0;exitDy=0;" parent="1" source="lQoL3OxBZK7-1ywt6j9J-93" target="lQoL3OxBZK7-1ywt6j9J-95" edge="1">
          <mxGeometry width="50" height="50" relative="1" as="geometry">
            <mxPoint x="2430" y="680" as="sourcePoint" />
            <mxPoint x="2480" y="630" as="targetPoint" />
          </mxGeometry>
        </mxCell>
        <mxCell id="lQoL3OxBZK7-1ywt6j9J-217" value="" style="endArrow=classic;html=1;rounded=0;entryX=1;entryY=0.5;entryDx=0;entryDy=0;exitX=0;exitY=0.5;exitDx=0;exitDy=0;" parent="1" source="lQoL3OxBZK7-1ywt6j9J-94" target="lQoL3OxBZK7-1ywt6j9J-96" edge="1">
          <mxGeometry width="50" height="50" relative="1" as="geometry">
            <mxPoint x="2870" y="400" as="sourcePoint" />
            <mxPoint x="2920" y="350" as="targetPoint" />
          </mxGeometry>
        </mxCell>
        <mxCell id="lQoL3OxBZK7-1ywt6j9J-218" value="" style="endArrow=classic;html=1;rounded=0;entryX=0.5;entryY=0;entryDx=0;entryDy=0;exitX=0.3;exitY=0.98;exitDx=0;exitDy=0;exitPerimeter=0;" parent="1" source="lQoL3OxBZK7-1ywt6j9J-94" target="lQoL3OxBZK7-1ywt6j9J-103" edge="1">
          <mxGeometry width="50" height="50" relative="1" as="geometry">
            <mxPoint x="2870" y="400" as="sourcePoint" />
            <mxPoint x="2920" y="350" as="targetPoint" />
          </mxGeometry>
        </mxCell>
        <mxCell id="lQoL3OxBZK7-1ywt6j9J-219" value="" style="endArrow=classic;html=1;rounded=0;entryX=0.5;entryY=0;entryDx=0;entryDy=0;exitX=0.8;exitY=0.9;exitDx=0;exitDy=0;exitPerimeter=0;" parent="1" source="lQoL3OxBZK7-1ywt6j9J-94" target="lQoL3OxBZK7-1ywt6j9J-104" edge="1">
          <mxGeometry width="50" height="50" relative="1" as="geometry">
            <mxPoint x="2870" y="400" as="sourcePoint" />
            <mxPoint x="2920" y="350" as="targetPoint" />
          </mxGeometry>
        </mxCell>
        <mxCell id="lQoL3OxBZK7-1ywt6j9J-220" value="" style="endArrow=classic;html=1;rounded=0;entryX=0.5;entryY=0;entryDx=0;entryDy=0;exitX=0;exitY=1;exitDx=0;exitDy=0;" parent="1" source="lQoL3OxBZK7-1ywt6j9J-103" target="lQoL3OxBZK7-1ywt6j9J-101" edge="1">
          <mxGeometry width="50" height="50" relative="1" as="geometry">
            <mxPoint x="2720" y="620" as="sourcePoint" />
            <mxPoint x="2580" y="700" as="targetPoint" />
          </mxGeometry>
        </mxCell>
        <mxCell id="lQoL3OxBZK7-1ywt6j9J-221" value="" style="endArrow=classic;html=1;rounded=0;entryX=0.5;entryY=0;entryDx=0;entryDy=0;exitX=0.272;exitY=0.967;exitDx=0;exitDy=0;exitPerimeter=0;" parent="1" source="lQoL3OxBZK7-1ywt6j9J-103" target="lQoL3OxBZK7-1ywt6j9J-97" edge="1">
          <mxGeometry width="50" height="50" relative="1" as="geometry">
            <mxPoint x="2530" y="750" as="sourcePoint" />
            <mxPoint x="2580" y="700" as="targetPoint" />
          </mxGeometry>
        </mxCell>
        <mxCell id="lQoL3OxBZK7-1ywt6j9J-222" value="" style="endArrow=classic;html=1;rounded=0;entryX=0.5;entryY=0;entryDx=0;entryDy=0;exitX=0.4;exitY=0.98;exitDx=0;exitDy=0;exitPerimeter=0;" parent="1" source="lQoL3OxBZK7-1ywt6j9J-103" target="lQoL3OxBZK7-1ywt6j9J-100" edge="1">
          <mxGeometry width="50" height="50" relative="1" as="geometry">
            <mxPoint x="2530" y="750" as="sourcePoint" />
            <mxPoint x="2580" y="700" as="targetPoint" />
          </mxGeometry>
        </mxCell>
        <mxCell id="lQoL3OxBZK7-1ywt6j9J-223" value="" style="endArrow=classic;html=1;rounded=0;entryX=0.228;entryY=0.06;entryDx=0;entryDy=0;entryPerimeter=0;exitX=0.65;exitY=0.967;exitDx=0;exitDy=0;exitPerimeter=0;" parent="1" source="lQoL3OxBZK7-1ywt6j9J-103" target="lQoL3OxBZK7-1ywt6j9J-102" edge="1">
          <mxGeometry width="50" height="50" relative="1" as="geometry">
            <mxPoint x="2530" y="750" as="sourcePoint" />
            <mxPoint x="2580" y="700" as="targetPoint" />
          </mxGeometry>
        </mxCell>
        <mxCell id="lQoL3OxBZK7-1ywt6j9J-224" value="" style="endArrow=classic;html=1;rounded=0;entryX=0.317;entryY=0.02;entryDx=0;entryDy=0;entryPerimeter=0;" parent="1" source="lQoL3OxBZK7-1ywt6j9J-103" target="lQoL3OxBZK7-1ywt6j9J-98" edge="1">
          <mxGeometry width="50" height="50" relative="1" as="geometry">
            <mxPoint x="3180" y="600" as="sourcePoint" />
            <mxPoint x="3230" y="550" as="targetPoint" />
          </mxGeometry>
        </mxCell>
        <mxCell id="lQoL3OxBZK7-1ywt6j9J-225" value="" style="endArrow=classic;html=1;rounded=0;entryX=0;entryY=0;entryDx=0;entryDy=0;exitX=0.944;exitY=0.74;exitDx=0;exitDy=0;exitPerimeter=0;" parent="1" source="lQoL3OxBZK7-1ywt6j9J-103" target="lQoL3OxBZK7-1ywt6j9J-99" edge="1">
          <mxGeometry width="50" height="50" relative="1" as="geometry">
            <mxPoint x="3180" y="600" as="sourcePoint" />
            <mxPoint x="3230" y="550" as="targetPoint" />
          </mxGeometry>
        </mxCell>
        <mxCell id="lQoL3OxBZK7-1ywt6j9J-229" value="" style="whiteSpace=wrap;html=1;aspect=fixed;fillColor=none;" parent="1" vertex="1">
          <mxGeometry x="-2245" y="530" width="50" height="50" as="geometry" />
        </mxCell>
        <mxCell id="lQoL3OxBZK7-1ywt6j9J-230" value="" style="endArrow=classic;html=1;rounded=0;entryX=0.5;entryY=0;entryDx=0;entryDy=0;exitX=0.5;exitY=1;exitDx=0;exitDy=0;" parent="1" source="lQoL3OxBZK7-1ywt6j9J-7" target="lQoL3OxBZK7-1ywt6j9J-229" edge="1">
          <mxGeometry width="50" height="50" relative="1" as="geometry">
            <mxPoint x="-1780" y="525" as="sourcePoint" />
            <mxPoint x="-1730" y="475" as="targetPoint" />
          </mxGeometry>
        </mxCell>
        <mxCell id="lQoL3OxBZK7-1ywt6j9J-231" value="" style="whiteSpace=wrap;html=1;aspect=fixed;fillColor=none;" parent="1" vertex="1">
          <mxGeometry x="-2115" y="530" width="50" height="50" as="geometry" />
        </mxCell>
        <mxCell id="lQoL3OxBZK7-1ywt6j9J-232" value="" style="endArrow=classic;html=1;rounded=0;entryX=0.5;entryY=0;entryDx=0;entryDy=0;exitX=0.5;exitY=1;exitDx=0;exitDy=0;" parent="1" target="lQoL3OxBZK7-1ywt6j9J-231" edge="1" source="lQoL3OxBZK7-1ywt6j9J-6">
          <mxGeometry width="50" height="50" relative="1" as="geometry">
            <mxPoint x="-2110" y="485" as="sourcePoint" />
            <mxPoint x="-1600" y="475" as="targetPoint" />
          </mxGeometry>
        </mxCell>
        <mxCell id="lQoL3OxBZK7-1ywt6j9J-233" value="" style="whiteSpace=wrap;html=1;aspect=fixed;fillColor=none;" parent="1" vertex="1">
          <mxGeometry x="-1985" y="530" width="50" height="50" as="geometry" />
        </mxCell>
        <mxCell id="lQoL3OxBZK7-1ywt6j9J-234" value="" style="endArrow=classic;html=1;rounded=0;entryX=0.5;entryY=0;entryDx=0;entryDy=0;exitX=0.5;exitY=1;exitDx=0;exitDy=0;" parent="1" target="lQoL3OxBZK7-1ywt6j9J-233" edge="1" source="lQoL3OxBZK7-1ywt6j9J-5">
          <mxGeometry width="50" height="50" relative="1" as="geometry">
            <mxPoint x="-1977.5" y="490" as="sourcePoint" />
            <mxPoint x="-1467.5" y="480" as="targetPoint" />
          </mxGeometry>
        </mxCell>
        <mxCell id="lQoL3OxBZK7-1ywt6j9J-235" value="" style="whiteSpace=wrap;html=1;aspect=fixed;fillColor=none;" parent="1" vertex="1">
          <mxGeometry x="-1680" y="535" width="50" height="50" as="geometry" />
        </mxCell>
        <mxCell id="lQoL3OxBZK7-1ywt6j9J-236" value="" style="endArrow=classic;html=1;rounded=0;entryX=0.5;entryY=0;entryDx=0;entryDy=0;exitX=0.5;exitY=1;exitDx=0;exitDy=0;" parent="1" target="lQoL3OxBZK7-1ywt6j9J-235" edge="1">
          <mxGeometry width="50" height="50" relative="1" as="geometry">
            <mxPoint x="-1655" y="490" as="sourcePoint" />
            <mxPoint x="-1145" y="480" as="targetPoint" />
          </mxGeometry>
        </mxCell>
        <mxCell id="lQoL3OxBZK7-1ywt6j9J-237" value="" style="whiteSpace=wrap;html=1;aspect=fixed;fillColor=none;" parent="1" vertex="1">
          <mxGeometry x="-1550" y="535" width="50" height="50" as="geometry" />
        </mxCell>
        <mxCell id="lQoL3OxBZK7-1ywt6j9J-238" value="" style="endArrow=classic;html=1;rounded=0;entryX=0.5;entryY=0;entryDx=0;entryDy=0;exitX=0.5;exitY=1;exitDx=0;exitDy=0;" parent="1" target="lQoL3OxBZK7-1ywt6j9J-237" edge="1">
          <mxGeometry width="50" height="50" relative="1" as="geometry">
            <mxPoint x="-1525" y="490" as="sourcePoint" />
            <mxPoint x="-1015" y="480" as="targetPoint" />
          </mxGeometry>
        </mxCell>
        <mxCell id="lQoL3OxBZK7-1ywt6j9J-239" value="" style="endArrow=classic;html=1;rounded=0;entryX=0.5;entryY=0;entryDx=0;entryDy=0;exitX=0.305;exitY=0.948;exitDx=0;exitDy=0;exitPerimeter=0;" parent="1" source="lQoL3OxBZK7-1ywt6j9J-9" edge="1">
          <mxGeometry width="50" height="50" relative="1" as="geometry">
            <mxPoint x="-1645" y="530" as="sourcePoint" />
            <mxPoint x="-1655" y="440" as="targetPoint" />
          </mxGeometry>
        </mxCell>
        <mxCell id="lQoL3OxBZK7-1ywt6j9J-240" value="" style="endArrow=classic;html=1;rounded=0;entryX=0.5;entryY=0;entryDx=0;entryDy=0;exitX=0.5;exitY=1;exitDx=0;exitDy=0;" parent="1" source="lQoL3OxBZK7-1ywt6j9J-9" target="lQoL3OxBZK7-1ywt6j9J-12" edge="1">
          <mxGeometry width="50" height="50" relative="1" as="geometry">
            <mxPoint x="-1635" y="490" as="sourcePoint" />
            <mxPoint x="-1585" y="440" as="targetPoint" />
          </mxGeometry>
        </mxCell>
        <mxCell id="lQoL3OxBZK7-1ywt6j9J-241" value="" style="endArrow=classic;html=1;rounded=0;entryX=0.5;entryY=0;entryDx=0;entryDy=0;exitX=1;exitY=1;exitDx=0;exitDy=0;" parent="1" source="lQoL3OxBZK7-1ywt6j9J-9" edge="1">
          <mxGeometry width="50" height="50" relative="1" as="geometry">
            <mxPoint x="-1635" y="490" as="sourcePoint" />
            <mxPoint x="-1395" y="440" as="targetPoint" />
          </mxGeometry>
        </mxCell>
        <mxCell id="lQoL3OxBZK7-1ywt6j9J-242" value="" style="whiteSpace=wrap;html=1;aspect=fixed;fillColor=none;" parent="1" vertex="1">
          <mxGeometry x="-1420" y="535" width="50" height="50" as="geometry" />
        </mxCell>
        <mxCell id="lQoL3OxBZK7-1ywt6j9J-243" value="" style="endArrow=classic;html=1;rounded=0;entryX=0.5;entryY=0;entryDx=0;entryDy=0;exitX=0.5;exitY=1;exitDx=0;exitDy=0;" parent="1" target="lQoL3OxBZK7-1ywt6j9J-242" edge="1">
          <mxGeometry width="50" height="50" relative="1" as="geometry">
            <mxPoint x="-1395" y="490" as="sourcePoint" />
            <mxPoint x="-890" y="480" as="targetPoint" />
          </mxGeometry>
        </mxCell>
        <mxCell id="lQoL3OxBZK7-1ywt6j9J-244" value="" style="whiteSpace=wrap;html=1;aspect=fixed;fillColor=none;" parent="1" vertex="1">
          <mxGeometry x="-872" y="535" width="50" height="50" as="geometry" />
        </mxCell>
        <mxCell id="lQoL3OxBZK7-1ywt6j9J-245" value="" style="endArrow=classic;html=1;rounded=0;entryX=0.5;entryY=0;entryDx=0;entryDy=0;exitX=0.5;exitY=1;exitDx=0;exitDy=0;" parent="1" target="lQoL3OxBZK7-1ywt6j9J-244" edge="1" source="lQoL3OxBZK7-1ywt6j9J-24">
          <mxGeometry width="50" height="50" relative="1" as="geometry">
            <mxPoint x="-864" y="485" as="sourcePoint" />
            <mxPoint x="-354" y="475" as="targetPoint" />
          </mxGeometry>
        </mxCell>
        <mxCell id="lQoL3OxBZK7-1ywt6j9J-246" value="" style="whiteSpace=wrap;html=1;aspect=fixed;fillColor=none;" parent="1" vertex="1">
          <mxGeometry x="-1020" y="535" width="50" height="50" as="geometry" />
        </mxCell>
        <mxCell id="lQoL3OxBZK7-1ywt6j9J-247" value="" style="endArrow=classic;html=1;rounded=0;entryX=0.5;entryY=0;entryDx=0;entryDy=0;exitX=0.5;exitY=1;exitDx=0;exitDy=0;" parent="1" target="lQoL3OxBZK7-1ywt6j9J-246" edge="1">
          <mxGeometry width="50" height="50" relative="1" as="geometry">
            <mxPoint x="-995" y="490" as="sourcePoint" />
            <mxPoint x="-485" y="480" as="targetPoint" />
          </mxGeometry>
        </mxCell>
        <mxCell id="lQoL3OxBZK7-1ywt6j9J-248" value="" style="whiteSpace=wrap;html=1;aspect=fixed;fillColor=none;" parent="1" vertex="1">
          <mxGeometry x="-1165" y="535" width="50" height="50" as="geometry" />
        </mxCell>
        <mxCell id="lQoL3OxBZK7-1ywt6j9J-249" value="" style="endArrow=classic;html=1;rounded=0;entryX=0.5;entryY=0;entryDx=0;entryDy=0;exitX=0.5;exitY=1;exitDx=0;exitDy=0;" parent="1" target="lQoL3OxBZK7-1ywt6j9J-248" edge="1">
          <mxGeometry width="50" height="50" relative="1" as="geometry">
            <mxPoint x="-1140" y="490" as="sourcePoint" />
            <mxPoint x="-630" y="480" as="targetPoint" />
          </mxGeometry>
        </mxCell>
        <mxCell id="lQoL3OxBZK7-1ywt6j9J-250" value="" style="whiteSpace=wrap;html=1;aspect=fixed;fillColor=none;" parent="1" vertex="1">
          <mxGeometry x="-1185" y="925" width="50" height="50" as="geometry" />
        </mxCell>
        <mxCell id="lQoL3OxBZK7-1ywt6j9J-251" value="" style="endArrow=classic;html=1;rounded=0;entryX=0.5;entryY=0;entryDx=0;entryDy=0;exitX=0.5;exitY=1;exitDx=0;exitDy=0;" parent="1" target="lQoL3OxBZK7-1ywt6j9J-250" edge="1">
          <mxGeometry width="50" height="50" relative="1" as="geometry">
            <mxPoint x="-1160" y="880" as="sourcePoint" />
            <mxPoint x="-650" y="870" as="targetPoint" />
          </mxGeometry>
        </mxCell>
        <mxCell id="lQoL3OxBZK7-1ywt6j9J-252" value="" style="whiteSpace=wrap;html=1;aspect=fixed;fillColor=none;" parent="1" vertex="1">
          <mxGeometry x="-1055" y="925" width="50" height="50" as="geometry" />
        </mxCell>
        <mxCell id="lQoL3OxBZK7-1ywt6j9J-253" value="" style="endArrow=classic;html=1;rounded=0;entryX=0.5;entryY=0;entryDx=0;entryDy=0;exitX=0.5;exitY=1;exitDx=0;exitDy=0;" parent="1" target="lQoL3OxBZK7-1ywt6j9J-252" edge="1">
          <mxGeometry width="50" height="50" relative="1" as="geometry">
            <mxPoint x="-1030" y="880" as="sourcePoint" />
            <mxPoint x="-520" y="870" as="targetPoint" />
          </mxGeometry>
        </mxCell>
        <mxCell id="lQoL3OxBZK7-1ywt6j9J-254" value="" style="whiteSpace=wrap;html=1;aspect=fixed;fillColor=none;" parent="1" vertex="1">
          <mxGeometry x="-922" y="925" width="50" height="50" as="geometry" />
        </mxCell>
        <mxCell id="lQoL3OxBZK7-1ywt6j9J-255" value="" style="endArrow=classic;html=1;rounded=0;entryX=0.5;entryY=0;entryDx=0;entryDy=0;exitX=0.5;exitY=1;exitDx=0;exitDy=0;" parent="1" target="lQoL3OxBZK7-1ywt6j9J-254" edge="1">
          <mxGeometry width="50" height="50" relative="1" as="geometry">
            <mxPoint x="-897" y="880" as="sourcePoint" />
            <mxPoint x="-387" y="870" as="targetPoint" />
          </mxGeometry>
        </mxCell>
        <mxCell id="lQoL3OxBZK7-1ywt6j9J-256" value="" style="whiteSpace=wrap;html=1;aspect=fixed;fillColor=none;" parent="1" vertex="1">
          <mxGeometry x="-790" y="925" width="50" height="50" as="geometry" />
        </mxCell>
        <mxCell id="lQoL3OxBZK7-1ywt6j9J-257" value="" style="endArrow=classic;html=1;rounded=0;entryX=0.5;entryY=0;entryDx=0;entryDy=0;exitX=0.5;exitY=1;exitDx=0;exitDy=0;" parent="1" target="lQoL3OxBZK7-1ywt6j9J-256" edge="1">
          <mxGeometry width="50" height="50" relative="1" as="geometry">
            <mxPoint x="-765" y="880" as="sourcePoint" />
            <mxPoint x="-255" y="870" as="targetPoint" />
          </mxGeometry>
        </mxCell>
        <mxCell id="lQoL3OxBZK7-1ywt6j9J-258" value="" style="whiteSpace=wrap;html=1;aspect=fixed;fillColor=none;" parent="1" vertex="1">
          <mxGeometry x="-650" y="925" width="50" height="50" as="geometry" />
        </mxCell>
        <mxCell id="lQoL3OxBZK7-1ywt6j9J-259" value="" style="endArrow=classic;html=1;rounded=0;entryX=0.5;entryY=0;entryDx=0;entryDy=0;exitX=0.5;exitY=1;exitDx=0;exitDy=0;" parent="1" target="lQoL3OxBZK7-1ywt6j9J-258" edge="1">
          <mxGeometry width="50" height="50" relative="1" as="geometry">
            <mxPoint x="-625" y="880" as="sourcePoint" />
            <mxPoint x="-115" y="870" as="targetPoint" />
          </mxGeometry>
        </mxCell>
        <mxCell id="lQoL3OxBZK7-1ywt6j9J-260" value="" style="whiteSpace=wrap;html=1;aspect=fixed;fillColor=none;" parent="1" vertex="1">
          <mxGeometry x="-510" y="925" width="50" height="50" as="geometry" />
        </mxCell>
        <mxCell id="lQoL3OxBZK7-1ywt6j9J-261" value="" style="endArrow=classic;html=1;rounded=0;entryX=0.5;entryY=0;entryDx=0;entryDy=0;exitX=0.5;exitY=1;exitDx=0;exitDy=0;" parent="1" target="lQoL3OxBZK7-1ywt6j9J-260" edge="1">
          <mxGeometry width="50" height="50" relative="1" as="geometry">
            <mxPoint x="-485" y="880" as="sourcePoint" />
            <mxPoint x="25" y="870" as="targetPoint" />
          </mxGeometry>
        </mxCell>
        <mxCell id="lQoL3OxBZK7-1ywt6j9J-262" value="" style="whiteSpace=wrap;html=1;aspect=fixed;fillColor=none;" parent="1" vertex="1">
          <mxGeometry x="-380" y="925" width="50" height="50" as="geometry" />
        </mxCell>
        <mxCell id="lQoL3OxBZK7-1ywt6j9J-263" value="" style="endArrow=classic;html=1;rounded=0;entryX=0.5;entryY=0;entryDx=0;entryDy=0;exitX=0.5;exitY=1;exitDx=0;exitDy=0;" parent="1" target="lQoL3OxBZK7-1ywt6j9J-262" edge="1">
          <mxGeometry width="50" height="50" relative="1" as="geometry">
            <mxPoint x="-355" y="880" as="sourcePoint" />
            <mxPoint x="155" y="870" as="targetPoint" />
          </mxGeometry>
        </mxCell>
        <mxCell id="lQoL3OxBZK7-1ywt6j9J-264" value="" style="whiteSpace=wrap;html=1;aspect=fixed;fillColor=none;" parent="1" vertex="1">
          <mxGeometry x="-250" y="925" width="50" height="50" as="geometry" />
        </mxCell>
        <mxCell id="lQoL3OxBZK7-1ywt6j9J-265" value="" style="endArrow=classic;html=1;rounded=0;entryX=0.5;entryY=0;entryDx=0;entryDy=0;exitX=0.5;exitY=1;exitDx=0;exitDy=0;" parent="1" target="lQoL3OxBZK7-1ywt6j9J-264" edge="1">
          <mxGeometry width="50" height="50" relative="1" as="geometry">
            <mxPoint x="-225" y="880" as="sourcePoint" />
            <mxPoint x="285" y="870" as="targetPoint" />
          </mxGeometry>
        </mxCell>
        <mxCell id="lQoL3OxBZK7-1ywt6j9J-266" value="" style="whiteSpace=wrap;html=1;aspect=fixed;fillColor=none;" parent="1" vertex="1">
          <mxGeometry x="100" y="540" width="50" height="50" as="geometry" />
        </mxCell>
        <mxCell id="lQoL3OxBZK7-1ywt6j9J-267" value="" style="endArrow=classic;html=1;rounded=0;entryX=0.5;entryY=0;entryDx=0;entryDy=0;exitX=0.5;exitY=1;exitDx=0;exitDy=0;" parent="1" target="lQoL3OxBZK7-1ywt6j9J-266" edge="1">
          <mxGeometry width="50" height="50" relative="1" as="geometry">
            <mxPoint x="125" y="495" as="sourcePoint" />
            <mxPoint x="635" y="485" as="targetPoint" />
          </mxGeometry>
        </mxCell>
        <mxCell id="lQoL3OxBZK7-1ywt6j9J-268" value="" style="whiteSpace=wrap;html=1;aspect=fixed;fillColor=none;" parent="1" vertex="1">
          <mxGeometry x="225" y="540" width="50" height="50" as="geometry" />
        </mxCell>
        <mxCell id="lQoL3OxBZK7-1ywt6j9J-269" value="" style="endArrow=classic;html=1;rounded=0;entryX=0.5;entryY=0;entryDx=0;entryDy=0;exitX=0.5;exitY=1;exitDx=0;exitDy=0;" parent="1" target="lQoL3OxBZK7-1ywt6j9J-268" edge="1">
          <mxGeometry width="50" height="50" relative="1" as="geometry">
            <mxPoint x="250" y="495" as="sourcePoint" />
            <mxPoint x="760" y="485" as="targetPoint" />
          </mxGeometry>
        </mxCell>
        <mxCell id="lQoL3OxBZK7-1ywt6j9J-270" value="" style="whiteSpace=wrap;html=1;aspect=fixed;fillColor=none;" parent="1" vertex="1">
          <mxGeometry x="355" y="540" width="50" height="50" as="geometry" />
        </mxCell>
        <mxCell id="lQoL3OxBZK7-1ywt6j9J-271" value="" style="endArrow=classic;html=1;rounded=0;entryX=0.5;entryY=0;entryDx=0;entryDy=0;exitX=0.5;exitY=1;exitDx=0;exitDy=0;" parent="1" target="lQoL3OxBZK7-1ywt6j9J-270" edge="1">
          <mxGeometry width="50" height="50" relative="1" as="geometry">
            <mxPoint x="380" y="495" as="sourcePoint" />
            <mxPoint x="890" y="485" as="targetPoint" />
          </mxGeometry>
        </mxCell>
        <mxCell id="lQoL3OxBZK7-1ywt6j9J-272" value="" style="whiteSpace=wrap;html=1;aspect=fixed;fillColor=none;" parent="1" vertex="1">
          <mxGeometry x="485" y="540" width="50" height="50" as="geometry" />
        </mxCell>
        <mxCell id="lQoL3OxBZK7-1ywt6j9J-273" value="" style="endArrow=classic;html=1;rounded=0;entryX=0.5;entryY=0;entryDx=0;entryDy=0;exitX=0.5;exitY=1;exitDx=0;exitDy=0;" parent="1" target="lQoL3OxBZK7-1ywt6j9J-272" edge="1">
          <mxGeometry width="50" height="50" relative="1" as="geometry">
            <mxPoint x="510" y="495" as="sourcePoint" />
            <mxPoint x="1020" y="485" as="targetPoint" />
          </mxGeometry>
        </mxCell>
        <mxCell id="lQoL3OxBZK7-1ywt6j9J-274" value="" style="whiteSpace=wrap;html=1;aspect=fixed;fillColor=none;" parent="1" vertex="1">
          <mxGeometry x="625" y="535" width="50" height="50" as="geometry" />
        </mxCell>
        <mxCell id="lQoL3OxBZK7-1ywt6j9J-275" value="" style="endArrow=classic;html=1;rounded=0;entryX=0.5;entryY=0;entryDx=0;entryDy=0;exitX=0.5;exitY=1;exitDx=0;exitDy=0;" parent="1" target="lQoL3OxBZK7-1ywt6j9J-274" edge="1">
          <mxGeometry width="50" height="50" relative="1" as="geometry">
            <mxPoint x="650" y="490" as="sourcePoint" />
            <mxPoint x="1160" y="480" as="targetPoint" />
          </mxGeometry>
        </mxCell>
        <mxCell id="lQoL3OxBZK7-1ywt6j9J-276" value="" style="whiteSpace=wrap;html=1;aspect=fixed;fillColor=none;" parent="1" vertex="1">
          <mxGeometry x="750" y="535" width="50" height="50" as="geometry" />
        </mxCell>
        <mxCell id="lQoL3OxBZK7-1ywt6j9J-277" value="" style="endArrow=classic;html=1;rounded=0;entryX=0.5;entryY=0;entryDx=0;entryDy=0;exitX=0.5;exitY=1;exitDx=0;exitDy=0;" parent="1" target="lQoL3OxBZK7-1ywt6j9J-276" edge="1">
          <mxGeometry width="50" height="50" relative="1" as="geometry">
            <mxPoint x="775" y="490" as="sourcePoint" />
            <mxPoint x="1285" y="480" as="targetPoint" />
          </mxGeometry>
        </mxCell>
        <mxCell id="lQoL3OxBZK7-1ywt6j9J-280" value="" style="whiteSpace=wrap;html=1;aspect=fixed;fillColor=none;" parent="1" vertex="1">
          <mxGeometry x="935" y="540" width="50" height="50" as="geometry" />
        </mxCell>
        <mxCell id="lQoL3OxBZK7-1ywt6j9J-281" value="" style="endArrow=classic;html=1;rounded=0;entryX=0.5;entryY=0;entryDx=0;entryDy=0;exitX=0.5;exitY=1;exitDx=0;exitDy=0;" parent="1" target="lQoL3OxBZK7-1ywt6j9J-280" edge="1">
          <mxGeometry width="50" height="50" relative="1" as="geometry">
            <mxPoint x="960" y="495" as="sourcePoint" />
            <mxPoint x="1470" y="485" as="targetPoint" />
          </mxGeometry>
        </mxCell>
        <mxCell id="lQoL3OxBZK7-1ywt6j9J-282" value="" style="whiteSpace=wrap;html=1;aspect=fixed;fillColor=none;" parent="1" vertex="1">
          <mxGeometry x="1117.5" y="545" width="50" height="50" as="geometry" />
        </mxCell>
        <mxCell id="lQoL3OxBZK7-1ywt6j9J-283" value="" style="endArrow=classic;html=1;rounded=0;entryX=0.5;entryY=0;entryDx=0;entryDy=0;exitX=0.5;exitY=1;exitDx=0;exitDy=0;" parent="1" target="lQoL3OxBZK7-1ywt6j9J-282" edge="1">
          <mxGeometry width="50" height="50" relative="1" as="geometry">
            <mxPoint x="1142.5" y="500" as="sourcePoint" />
            <mxPoint x="1652.5" y="490" as="targetPoint" />
          </mxGeometry>
        </mxCell>
        <mxCell id="lQoL3OxBZK7-1ywt6j9J-284" value="" style="whiteSpace=wrap;html=1;aspect=fixed;fillColor=none;" parent="1" vertex="1">
          <mxGeometry x="1285" y="545" width="50" height="50" as="geometry" />
        </mxCell>
        <mxCell id="lQoL3OxBZK7-1ywt6j9J-285" value="" style="endArrow=classic;html=1;rounded=0;entryX=0.5;entryY=0;entryDx=0;entryDy=0;exitX=0.5;exitY=1;exitDx=0;exitDy=0;" parent="1" target="lQoL3OxBZK7-1ywt6j9J-284" edge="1">
          <mxGeometry width="50" height="50" relative="1" as="geometry">
            <mxPoint x="1310" y="500" as="sourcePoint" />
            <mxPoint x="1820" y="490" as="targetPoint" />
          </mxGeometry>
        </mxCell>
        <mxCell id="lQoL3OxBZK7-1ywt6j9J-286" value="" style="whiteSpace=wrap;html=1;aspect=fixed;fillColor=none;" parent="1" vertex="1">
          <mxGeometry x="1505" y="540" width="50" height="50" as="geometry" />
        </mxCell>
        <mxCell id="lQoL3OxBZK7-1ywt6j9J-287" value="" style="endArrow=classic;html=1;rounded=0;entryX=0.5;entryY=0;entryDx=0;entryDy=0;exitX=0.5;exitY=1;exitDx=0;exitDy=0;" parent="1" target="lQoL3OxBZK7-1ywt6j9J-286" edge="1">
          <mxGeometry width="50" height="50" relative="1" as="geometry">
            <mxPoint x="1530" y="495" as="sourcePoint" />
            <mxPoint x="2040" y="485" as="targetPoint" />
          </mxGeometry>
        </mxCell>
        <mxCell id="lQoL3OxBZK7-1ywt6j9J-288" value="" style="whiteSpace=wrap;html=1;aspect=fixed;fillColor=none;" parent="1" vertex="1">
          <mxGeometry x="1636" y="540" width="50" height="50" as="geometry" />
        </mxCell>
        <mxCell id="lQoL3OxBZK7-1ywt6j9J-289" value="" style="endArrow=classic;html=1;rounded=0;entryX=0.5;entryY=0;entryDx=0;entryDy=0;exitX=0.5;exitY=1;exitDx=0;exitDy=0;" parent="1" target="lQoL3OxBZK7-1ywt6j9J-288" edge="1">
          <mxGeometry width="50" height="50" relative="1" as="geometry">
            <mxPoint x="1661" y="495" as="sourcePoint" />
            <mxPoint x="2171" y="485" as="targetPoint" />
          </mxGeometry>
        </mxCell>
        <mxCell id="lQoL3OxBZK7-1ywt6j9J-290" value="" style="whiteSpace=wrap;html=1;aspect=fixed;fillColor=none;" parent="1" vertex="1">
          <mxGeometry x="2019" y="550" width="50" height="50" as="geometry" />
        </mxCell>
        <mxCell id="lQoL3OxBZK7-1ywt6j9J-291" value="" style="endArrow=classic;html=1;rounded=0;entryX=0.5;entryY=0;entryDx=0;entryDy=0;exitX=0.5;exitY=1;exitDx=0;exitDy=0;" parent="1" target="lQoL3OxBZK7-1ywt6j9J-290" edge="1">
          <mxGeometry width="50" height="50" relative="1" as="geometry">
            <mxPoint x="2044" y="505" as="sourcePoint" />
            <mxPoint x="2554" y="495" as="targetPoint" />
          </mxGeometry>
        </mxCell>
        <mxCell id="lQoL3OxBZK7-1ywt6j9J-294" value="" style="whiteSpace=wrap;html=1;aspect=fixed;fillColor=none;" parent="1" vertex="1">
          <mxGeometry x="2149" y="550" width="50" height="50" as="geometry" />
        </mxCell>
        <mxCell id="lQoL3OxBZK7-1ywt6j9J-295" value="" style="endArrow=classic;html=1;rounded=0;entryX=0.5;entryY=0;entryDx=0;entryDy=0;exitX=0.5;exitY=1;exitDx=0;exitDy=0;" parent="1" target="lQoL3OxBZK7-1ywt6j9J-294" edge="1">
          <mxGeometry width="50" height="50" relative="1" as="geometry">
            <mxPoint x="2174" y="505" as="sourcePoint" />
            <mxPoint x="2684" y="495" as="targetPoint" />
          </mxGeometry>
        </mxCell>
        <mxCell id="lQoL3OxBZK7-1ywt6j9J-296" value="" style="whiteSpace=wrap;html=1;aspect=fixed;fillColor=none;" parent="1" vertex="1">
          <mxGeometry x="2269.75" y="550" width="50" height="50" as="geometry" />
        </mxCell>
        <mxCell id="lQoL3OxBZK7-1ywt6j9J-297" value="" style="endArrow=classic;html=1;rounded=0;entryX=0.5;entryY=0;entryDx=0;entryDy=0;exitX=0.5;exitY=1;exitDx=0;exitDy=0;" parent="1" target="lQoL3OxBZK7-1ywt6j9J-296" edge="1">
          <mxGeometry width="50" height="50" relative="1" as="geometry">
            <mxPoint x="2294.75" y="505" as="sourcePoint" />
            <mxPoint x="2804.75" y="495" as="targetPoint" />
          </mxGeometry>
        </mxCell>
        <mxCell id="lQoL3OxBZK7-1ywt6j9J-298" value="" style="whiteSpace=wrap;html=1;aspect=fixed;fillColor=none;" parent="1" vertex="1">
          <mxGeometry x="2485" y="545" width="50" height="50" as="geometry" />
        </mxCell>
        <mxCell id="lQoL3OxBZK7-1ywt6j9J-299" value="" style="endArrow=classic;html=1;rounded=0;entryX=0.5;entryY=0;entryDx=0;entryDy=0;exitX=0.5;exitY=1;exitDx=0;exitDy=0;" parent="1" target="lQoL3OxBZK7-1ywt6j9J-298" edge="1">
          <mxGeometry width="50" height="50" relative="1" as="geometry">
            <mxPoint x="2510" y="500" as="sourcePoint" />
            <mxPoint x="3020" y="490" as="targetPoint" />
          </mxGeometry>
        </mxCell>
        <mxCell id="lQoL3OxBZK7-1ywt6j9J-300" value="" style="whiteSpace=wrap;html=1;aspect=fixed;fillColor=none;" parent="1" vertex="1">
          <mxGeometry x="2615" y="545" width="50" height="50" as="geometry" />
        </mxCell>
        <mxCell id="lQoL3OxBZK7-1ywt6j9J-301" value="" style="endArrow=classic;html=1;rounded=0;entryX=0.5;entryY=0;entryDx=0;entryDy=0;exitX=0.5;exitY=1;exitDx=0;exitDy=0;" parent="1" target="lQoL3OxBZK7-1ywt6j9J-300" edge="1">
          <mxGeometry width="50" height="50" relative="1" as="geometry">
            <mxPoint x="2640" y="500" as="sourcePoint" />
            <mxPoint x="3150" y="490" as="targetPoint" />
          </mxGeometry>
        </mxCell>
        <mxCell id="lQoL3OxBZK7-1ywt6j9J-302" value="" style="whiteSpace=wrap;html=1;aspect=fixed;fillColor=none;" parent="1" vertex="1">
          <mxGeometry x="2755" y="545" width="50" height="50" as="geometry" />
        </mxCell>
        <mxCell id="lQoL3OxBZK7-1ywt6j9J-303" value="" style="endArrow=classic;html=1;rounded=0;entryX=0.5;entryY=0;entryDx=0;entryDy=0;exitX=0.5;exitY=1;exitDx=0;exitDy=0;" parent="1" target="lQoL3OxBZK7-1ywt6j9J-302" edge="1">
          <mxGeometry width="50" height="50" relative="1" as="geometry">
            <mxPoint x="2780" y="500" as="sourcePoint" />
            <mxPoint x="3290" y="490" as="targetPoint" />
          </mxGeometry>
        </mxCell>
        <mxCell id="lQoL3OxBZK7-1ywt6j9J-304" value="" style="whiteSpace=wrap;html=1;aspect=fixed;fillColor=none;" parent="1" vertex="1">
          <mxGeometry x="2785" y="785" width="50" height="50" as="geometry" />
        </mxCell>
        <mxCell id="lQoL3OxBZK7-1ywt6j9J-305" value="" style="endArrow=classic;html=1;rounded=0;entryX=0.5;entryY=0;entryDx=0;entryDy=0;exitX=0.5;exitY=1;exitDx=0;exitDy=0;" parent="1" target="lQoL3OxBZK7-1ywt6j9J-304" edge="1">
          <mxGeometry width="50" height="50" relative="1" as="geometry">
            <mxPoint x="2810" y="740" as="sourcePoint" />
            <mxPoint x="3320" y="730" as="targetPoint" />
          </mxGeometry>
        </mxCell>
        <mxCell id="lQoL3OxBZK7-1ywt6j9J-306" value="" style="whiteSpace=wrap;html=1;aspect=fixed;fillColor=none;" parent="1" vertex="1">
          <mxGeometry x="2915" y="785" width="50" height="50" as="geometry" />
        </mxCell>
        <mxCell id="lQoL3OxBZK7-1ywt6j9J-307" value="" style="endArrow=classic;html=1;rounded=0;entryX=0.5;entryY=0;entryDx=0;entryDy=0;exitX=0.5;exitY=1;exitDx=0;exitDy=0;" parent="1" target="lQoL3OxBZK7-1ywt6j9J-306" edge="1">
          <mxGeometry width="50" height="50" relative="1" as="geometry">
            <mxPoint x="2940" y="740" as="sourcePoint" />
            <mxPoint x="3450" y="730" as="targetPoint" />
          </mxGeometry>
        </mxCell>
        <mxCell id="lQoL3OxBZK7-1ywt6j9J-308" value="" style="whiteSpace=wrap;html=1;aspect=fixed;fillColor=none;" parent="1" vertex="1">
          <mxGeometry x="3055" y="785" width="50" height="50" as="geometry" />
        </mxCell>
        <mxCell id="lQoL3OxBZK7-1ywt6j9J-309" value="" style="endArrow=classic;html=1;rounded=0;entryX=0.5;entryY=0;entryDx=0;entryDy=0;exitX=0.5;exitY=1;exitDx=0;exitDy=0;" parent="1" target="lQoL3OxBZK7-1ywt6j9J-308" edge="1">
          <mxGeometry width="50" height="50" relative="1" as="geometry">
            <mxPoint x="3080" y="740" as="sourcePoint" />
            <mxPoint x="3590" y="730" as="targetPoint" />
          </mxGeometry>
        </mxCell>
        <mxCell id="lQoL3OxBZK7-1ywt6j9J-310" value="" style="whiteSpace=wrap;html=1;aspect=fixed;fillColor=none;" parent="1" vertex="1">
          <mxGeometry x="3195" y="785" width="50" height="50" as="geometry" />
        </mxCell>
        <mxCell id="lQoL3OxBZK7-1ywt6j9J-311" value="" style="endArrow=classic;html=1;rounded=0;entryX=0.5;entryY=0;entryDx=0;entryDy=0;exitX=0.5;exitY=1;exitDx=0;exitDy=0;" parent="1" target="lQoL3OxBZK7-1ywt6j9J-310" edge="1">
          <mxGeometry width="50" height="50" relative="1" as="geometry">
            <mxPoint x="3220" y="740" as="sourcePoint" />
            <mxPoint x="3730" y="730" as="targetPoint" />
          </mxGeometry>
        </mxCell>
        <mxCell id="lQoL3OxBZK7-1ywt6j9J-312" value="" style="whiteSpace=wrap;html=1;aspect=fixed;fillColor=none;" parent="1" vertex="1">
          <mxGeometry x="3325" y="785" width="50" height="50" as="geometry" />
        </mxCell>
        <mxCell id="lQoL3OxBZK7-1ywt6j9J-313" value="" style="endArrow=classic;html=1;rounded=0;entryX=0.5;entryY=0;entryDx=0;entryDy=0;exitX=0.5;exitY=1;exitDx=0;exitDy=0;" parent="1" target="lQoL3OxBZK7-1ywt6j9J-312" edge="1">
          <mxGeometry width="50" height="50" relative="1" as="geometry">
            <mxPoint x="3350" y="740" as="sourcePoint" />
            <mxPoint x="3860" y="730" as="targetPoint" />
          </mxGeometry>
        </mxCell>
        <mxCell id="lQoL3OxBZK7-1ywt6j9J-314" value="" style="whiteSpace=wrap;html=1;aspect=fixed;fillColor=none;" parent="1" vertex="1">
          <mxGeometry x="3455" y="790" width="50" height="50" as="geometry" />
        </mxCell>
        <mxCell id="lQoL3OxBZK7-1ywt6j9J-315" value="" style="endArrow=classic;html=1;rounded=0;entryX=0.5;entryY=0;entryDx=0;entryDy=0;exitX=0.5;exitY=1;exitDx=0;exitDy=0;" parent="1" target="lQoL3OxBZK7-1ywt6j9J-314" edge="1">
          <mxGeometry width="50" height="50" relative="1" as="geometry">
            <mxPoint x="3480" y="745" as="sourcePoint" />
            <mxPoint x="3990" y="735" as="targetPoint" />
          </mxGeometry>
        </mxCell>
        <mxCell id="lQoL3OxBZK7-1ywt6j9J-316" value="" style="whiteSpace=wrap;html=1;aspect=fixed;fillColor=none;" parent="1" vertex="1">
          <mxGeometry x="3295" y="545" width="50" height="50" as="geometry" />
        </mxCell>
        <mxCell id="lQoL3OxBZK7-1ywt6j9J-317" value="" style="endArrow=classic;html=1;rounded=0;entryX=0.5;entryY=0;entryDx=0;entryDy=0;exitX=0.5;exitY=1;exitDx=0;exitDy=0;" parent="1" target="lQoL3OxBZK7-1ywt6j9J-316" edge="1">
          <mxGeometry width="50" height="50" relative="1" as="geometry">
            <mxPoint x="3320" y="500" as="sourcePoint" />
            <mxPoint x="3830" y="490" as="targetPoint" />
          </mxGeometry>
        </mxCell>
        <mxCell id="fo16STJtQAD1CJUXCAmZ-2" value="" style="endArrow=none;dashed=1;html=1;rounded=0;" edge="1" parent="1">
          <mxGeometry width="50" height="50" relative="1" as="geometry">
            <mxPoint x="-1840" y="620" as="sourcePoint" />
            <mxPoint x="-1840" y="280" as="targetPoint" />
          </mxGeometry>
        </mxCell>
      </root>
    </mxGraphModel>
  </diagram>
</mxfile>
